<svg width="55" height="43" viewBox="0 0 55 43" fill="none" xmlns="http://www.w3.org/2000/svg">
<path d="M12.8672 0.335938C12.9714 0.466146 13.0495 0.622396 13.1016 0.804688C13.0495 1.16927 13.0365 1.41667 13.0625 1.54688C13.1146 1.65104 13.1146 1.76823 13.0625 1.89844C13.1146 1.97656 13.1406 2.05469 13.1406 2.13281C13.1406 2.21094 13.1667 2.30208 13.2188 2.40625C13.2448 2.69271 13.2578 2.84896 13.2578 2.875C13.2839 2.875 13.3099 2.90104 13.3359 2.95312C13.3359 3.23958 13.349 3.4349 13.375 3.53906C13.401 3.61719 13.4271 3.69531 13.4531 3.77344C13.4792 4.03385 13.5052 4.21615 13.5312 4.32031C13.5833 4.42448 13.5833 4.52865 13.5312 4.63281L13.6094 5.10156C13.6875 5.25781 13.7396 5.4401 13.7656 5.64844C13.7917 5.83073 13.8438 5.98698 13.9219 6.11719C14 6.45573 14.013 6.67708 13.9609 6.78125C14.1172 7.01562 14.1693 7.14583 14.1172 7.17188C14.0651 7.17188 14.0521 7.21094 14.0781 7.28906L14.2344 7.71875C14.1823 7.84896 14.1693 7.95312 14.1953 8.03125C14.2214 8.08333 14.2344 8.13542 14.2344 8.1875C14.2865 8.52604 14.3255 8.8125 14.3516 9.04688C14.3776 9.25521 14.4297 9.42448 14.5078 9.55469C14.5339 9.76302 14.5339 9.89323 14.5078 9.94531C14.5078 9.97135 14.5208 10.0104 14.5469 10.0625C14.5729 10.1406 14.599 10.2057 14.625 10.2578C14.651 10.3099 14.651 10.401 14.625 10.5312C14.625 10.7396 14.651 10.8958 14.7031 11C14.7552 11.2604 14.7943 11.4297 14.8203 11.5078C14.8724 11.5859 14.9115 11.651 14.9375 11.7031C14.9375 11.9115 14.9505 12.0807 14.9766 12.2109C15.0286 12.4714 15.0547 12.6797 15.0547 12.8359C15.0547 12.9661 15.1198 13.0573 15.25 13.1094C15.1979 13.1615 15.1849 13.2266 15.2109 13.3047C15.237 13.3568 15.25 13.4349 15.25 13.5391C15.3021 13.8516 15.3802 14.0339 15.4844 14.0859C15.4323 14.2161 15.4323 14.3594 15.4844 14.5156C15.5365 14.6458 15.5885 14.763 15.6406 14.8672C15.6406 15.2057 15.6276 15.4401 15.6016 15.5703C15.6536 15.7786 15.6927 15.9089 15.7188 15.9609C15.7708 15.987 15.8229 16.026 15.875 16.0781L15.9531 16.6641C15.9531 16.7943 15.9661 16.9115 15.9922 17.0156C16.0443 17.0938 16.0573 17.1979 16.0312 17.3281C16.1615 17.5885 16.2005 17.7188 16.1484 17.7188C16.1224 17.7188 16.1094 17.7448 16.1094 17.7969C16.1875 18.0312 16.2135 18.1615 16.1875 18.1875C16.1615 18.1875 16.1615 18.2135 16.1875 18.2656C16.1094 18.5781 16.1224 18.7995 16.2266 18.9297C16.3568 19.0339 16.3828 19.1771 16.3047 19.3594C16.3568 19.4896 16.4089 19.6068 16.4609 19.7109C16.5391 19.7891 16.5651 19.9323 16.5391 20.1406C16.5911 20.4531 16.6172 20.6224 16.6172 20.6484C16.6432 20.8828 16.6693 21.0521 16.6953 21.1562C16.7214 21.2344 16.7344 21.3255 16.7344 21.4297C16.7604 21.5599 16.7604 21.7161 16.7344 21.8984C16.7344 22.0547 16.7474 22.1979 16.7734 22.3281C16.6953 22.5625 16.6562 22.7318 16.6562 22.8359C16.6823 22.9141 16.7344 22.9661 16.8125 22.9922C16.8385 23.3307 16.8255 23.5 16.7734 23.5C16.7214 23.474 16.7083 23.513 16.7344 23.6172C16.7865 23.7995 16.7995 23.9167 16.7734 23.9688C16.7474 23.9948 16.7344 24.0339 16.7344 24.0859C16.8125 24.3724 16.8385 24.5417 16.8125 24.5938C16.8125 24.6458 16.8125 24.6979 16.8125 24.75C16.8385 24.8542 16.8646 24.9583 16.8906 25.0625C16.9427 25.1667 16.9688 25.2969 16.9688 25.4531C17.0208 25.8698 17.0469 26.1172 17.0469 26.1953C17.0208 26.4297 17.0208 26.612 17.0469 26.7422C17.0729 26.8464 17.0859 26.9505 17.0859 27.0547C17.112 27.1068 17.112 27.1849 17.0859 27.2891C17.0859 27.3932 17.112 27.4714 17.1641 27.5234L17.125 28.3438C17.099 28.5781 17.0859 28.7083 17.0859 28.7344C17.112 28.7344 17.125 28.7474 17.125 28.7734C17.0729 29.0859 17.0469 29.2682 17.0469 29.3203C17.0729 29.3724 17.0599 29.4245 17.0078 29.4766C17.0599 29.6589 17.0729 29.776 17.0469 29.8281C17.0208 29.8802 17.0078 29.9323 17.0078 29.9844C17.0339 30.1667 17.0208 30.3099 16.9688 30.4141C16.9948 30.5182 16.9948 30.6354 16.9688 30.7656C16.9688 30.8698 16.9557 30.9479 16.9297 31C16.9557 31.2344 16.9557 31.4036 16.9297 31.5078C16.9297 31.612 16.9297 31.7422 16.9297 31.8984C16.9036 32.0286 16.9036 32.1328 16.9297 32.2109C16.9557 32.2891 16.9297 32.3542 16.8516 32.4062C16.9297 32.4844 16.9427 32.6797 16.8906 32.9922C16.8906 33.0964 16.8646 33.2786 16.8125 33.5391C16.7865 33.9297 16.7474 34.151 16.6953 34.2031C16.6432 34.5417 16.5781 34.763 16.5 34.8672C16.4479 34.9714 16.4089 35.1146 16.3828 35.2969C16.2786 35.6354 16.1745 35.8438 16.0703 35.9219C16.0703 36.1042 16.0312 36.2474 15.9531 36.3516C15.901 36.4557 15.862 36.5859 15.8359 36.7422C15.7057 36.9505 15.5885 37.0938 15.4844 37.1719C15.3802 37.25 15.3281 37.3802 15.3281 37.5625C15.1979 37.6146 15.0938 37.6927 15.0156 37.7969C14.9635 37.9271 14.8854 38.0443 14.7812 38.1484C14.5729 38.3568 14.4167 38.513 14.3125 38.6172C14.2083 38.7474 14.1042 38.8906 14 39.0469C13.7396 39.1771 13.5964 39.2812 13.5703 39.3594C13.5443 39.4375 13.5052 39.5026 13.4531 39.5547C13.401 39.6068 13.3229 39.6589 13.2187 39.7109C13.1146 39.763 13.0495 39.8411 13.0234 39.9453C12.8411 40.1276 12.737 40.2318 12.7109 40.2578C12.7109 40.2839 12.724 40.3229 12.75 40.375C12.5156 40.4792 12.3724 40.5182 12.3203 40.4922C12.2682 40.4661 12.2161 40.4401 12.1641 40.4141C11.8516 40.6484 11.6693 40.8047 11.6172 40.8828C11.5651 40.9609 11.5 41.026 11.4219 41.0781C11.2396 41.1302 11.1354 41.1562 11.1094 41.1562C11.0833 41.1823 11.0573 41.2214 11.0312 41.2734L10.6406 41.5078C10.5104 41.5859 10.4062 41.625 10.3281 41.625C10.276 41.625 10.224 41.638 10.1719 41.6641C10.0937 41.7161 10.0156 41.7682 9.9375 41.8203C9.88542 41.8724 9.80729 41.9245 9.70312 41.9766C9.49479 42.0807 9.3776 42.1328 9.35156 42.1328C9.35156 42.1589 9.32552 42.1849 9.27344 42.2109C9.16927 42.3411 9.09115 42.4062 9.03906 42.4062C8.98698 42.4062 8.9349 42.4323 8.88281 42.4844C8.57031 42.4323 8.40104 42.4193 8.375 42.4453C8.34896 42.4974 8.3099 42.5234 8.25781 42.5234C8.07552 42.5234 7.90625 42.4714 7.75 42.3672C7.20312 42.4974 6.78646 42.5755 6.5 42.6016C6.21354 42.6276 5.91406 42.6536 5.60156 42.6797C5.41927 42.5495 5.23698 42.4974 5.05469 42.5234C4.8724 42.5495 4.71615 42.5365 4.58594 42.4844C4.35156 42.4323 4.22135 42.3802 4.19531 42.3281C4.16927 42.276 4.10417 42.263 4 42.2891C3.94792 42.2109 3.86979 42.1589 3.76562 42.1328C3.66146 42.1328 3.57031 42.1068 3.49219 42.0547C3.4401 42.0286 3.38802 41.9896 3.33594 41.9375C3.28385 41.8854 3.20573 41.8333 3.10156 41.7812C2.86719 41.5469 2.73698 41.4297 2.71094 41.4297C2.6849 41.4557 2.65885 41.4557 2.63281 41.4297C2.52865 41.2474 2.48958 41.1302 2.51562 41.0781C2.54167 41.026 2.56771 40.974 2.59375 40.9219C2.46354 40.8438 2.30729 40.8047 2.125 40.8047C2.04687 40.7786 1.98177 40.7266 1.92969 40.6484C1.90365 40.5964 1.85156 40.5443 1.77344 40.4922C1.85156 40.2578 1.8776 40.1146 1.85156 40.0625C1.85156 40.0365 1.8125 40.0365 1.73437 40.0625C1.78646 39.9583 1.78646 39.8672 1.73437 39.7891C1.68229 39.737 1.64323 39.6589 1.61719 39.5547C1.61719 39.4245 1.64323 39.2812 1.69531 39.125C1.77344 38.9948 1.78646 38.8516 1.73437 38.6953C1.89062 38.4089 1.95573 38.2396 1.92969 38.1875C1.90365 38.1354 1.90365 38.0573 1.92969 37.9531C2.08594 37.5625 2.21615 37.3021 2.32031 37.1719C2.42448 37.0417 2.52865 36.8594 2.63281 36.625C2.8151 36.4167 2.90625 36.2734 2.90625 36.1953C2.93229 36.1432 2.98437 36.1042 3.0625 36.0781C3.16667 35.9219 3.23177 35.8047 3.25781 35.7266C3.28385 35.6745 3.3099 35.6094 3.33594 35.5312C3.46615 35.5312 3.59635 35.5443 3.72656 35.5703C3.85677 35.5964 3.97396 35.5833 4.07812 35.5312C4.13021 35.8698 4.09115 36.1172 3.96094 36.2734C3.85677 36.4297 3.83073 36.625 3.88281 36.8594C3.70052 37.0938 3.63542 37.224 3.6875 37.25C3.73958 37.276 3.7526 37.3151 3.72656 37.3672C3.70052 37.4453 3.6875 37.5234 3.6875 37.6016C3.71354 37.6797 3.72656 37.7578 3.72656 37.8359C3.77865 38.0964 3.79167 38.2396 3.76562 38.2656C3.76562 38.2917 3.76562 38.3177 3.76562 38.3438C3.81771 38.474 3.88281 38.5651 3.96094 38.6172C4.03906 38.6953 4.0651 38.7995 4.03906 38.9297C4.22135 39.112 4.32552 39.2031 4.35156 39.2031C4.3776 39.2031 4.41667 39.2161 4.46875 39.2422L5.01562 39.8281C5.11979 39.8542 5.19792 39.8932 5.25 39.9453C5.32812 39.9974 5.43229 40.0104 5.5625 39.9844C5.66667 40.1406 5.82292 40.2188 6.03125 40.2188C6.21354 40.2708 6.34375 40.3099 6.42187 40.3359C6.52604 40.362 6.60417 40.375 6.65625 40.375C6.96875 40.3229 7.13802 40.3229 7.16406 40.375C7.1901 40.4271 7.22917 40.4531 7.28125 40.4531C7.54167 40.401 7.71094 40.388 7.78906 40.4141C7.89323 40.4401 7.9974 40.4401 8.10156 40.4141C8.3099 40.388 8.42708 40.388 8.45312 40.4141C8.47917 40.4401 8.51823 40.4531 8.57031 40.4531C8.85677 40.4271 9 40.4141 9 40.4141C9 40.4401 9.01302 40.4531 9.03906 40.4531C9.14323 40.4531 9.2474 40.4271 9.35156 40.375C9.48177 40.349 9.58594 40.3229 9.66406 40.2969C9.89844 40.2188 10.0807 40.1667 10.2109 40.1406C10.3672 40.1146 10.5104 40.0755 10.6406 40.0234C10.7708 39.9193 10.901 39.8411 11.0312 39.7891C11.1875 39.737 11.3047 39.6458 11.3828 39.5156C11.6172 39.3854 11.7474 39.3073 11.7734 39.2812C11.8255 39.2552 11.8646 39.2161 11.8906 39.1641C12.2031 39.0339 12.3464 38.9167 12.3203 38.8125C12.3203 38.7344 12.3724 38.6953 12.4766 38.6953C12.737 38.4089 12.9062 38.1875 12.9844 38.0312C13.0885 37.901 13.2057 37.7708 13.3359 37.6406C13.3359 37.4844 13.362 37.3542 13.4141 37.25C13.4661 37.1719 13.5312 37.0938 13.6094 37.0156C13.5833 36.8854 13.5833 36.7812 13.6094 36.7031C13.6615 36.651 13.7135 36.599 13.7656 36.5469C13.8437 36.1302 13.9089 35.8698 13.9609 35.7656C14.0391 35.6615 14.0521 35.5443 14 35.4141C14.0521 35.3099 14.0911 35.1927 14.1172 35.0625C14.1693 34.9323 14.1693 34.8021 14.1172 34.6719C14.2474 34.4375 14.2865 34.3073 14.2344 34.2812C14.2083 34.2552 14.2083 34.2161 14.2344 34.1641C14.2865 34.112 14.2995 34.0469 14.2734 33.9688C14.2734 33.8906 14.2865 33.7865 14.3125 33.6562C14.3385 33.6042 14.3646 33.5391 14.3906 33.4609C14.4427 33.3828 14.4687 33.2917 14.4687 33.1875C14.4167 32.9271 14.3906 32.7448 14.3906 32.6406C14.4167 32.5625 14.4036 32.4844 14.3516 32.4062C14.3776 32.0677 14.3776 31.8594 14.3516 31.7812C14.3255 31.7292 14.2995 31.651 14.2734 31.5469C14.3516 31.3125 14.3776 31.1823 14.3516 31.1562C14.3255 31.1562 14.3125 31.1302 14.3125 31.0781C14.3646 30.974 14.3776 30.8828 14.3516 30.8047C14.3516 30.7005 14.3776 30.6224 14.4297 30.5703C14.3776 30.4922 14.3516 30.375 14.3516 30.2188C14.3516 30.0365 14.3776 29.9062 14.4297 29.8281C14.4557 29.4896 14.4427 29.2031 14.3906 28.9688C14.3385 28.6042 14.3125 28.3958 14.3125 28.3438C14.3385 28.2656 14.3516 28.1745 14.3516 28.0703C14.3255 27.7839 14.2995 27.6146 14.2734 27.5625C14.2734 27.5104 14.2995 27.4583 14.3516 27.4062C14.2995 27.1458 14.2734 27.0156 14.2734 27.0156C14.2995 26.9896 14.3125 26.9505 14.3125 26.8984C14.3125 26.8203 14.2995 26.7422 14.2734 26.6641C14.2474 26.5859 14.2214 26.4818 14.1953 26.3516C14.1693 26.0651 14.1562 25.9219 14.1562 25.9219C14.1302 25.6615 14.1172 25.4271 14.1172 25.2188C14.1432 25.0104 14.1562 24.8151 14.1562 24.6328C14.1562 24.5807 14.1432 24.5156 14.1172 24.4375C14.0911 24.3333 14.1042 24.2552 14.1562 24.2031C14.1042 23.8906 14.0651 23.7344 14.0391 23.7344C14.013 23.7083 14 23.6693 14 23.6172C14.026 23.4089 14.026 23.2656 14 23.1875C13.974 23.1094 13.9479 23.0312 13.9219 22.9531C13.8958 22.6667 13.8828 22.4714 13.8828 22.3672C13.8828 22.263 13.8698 22.1719 13.8438 22.0938C13.7656 21.7552 13.7266 21.5599 13.7266 21.5078C13.7526 21.4557 13.7656 21.4036 13.7656 21.3516C13.6875 21.0651 13.6484 20.8828 13.6484 20.8047C13.6745 20.7005 13.6875 20.5833 13.6875 20.4531C13.6354 20.0885 13.5833 19.8281 13.5312 19.6719C13.4792 19.5156 13.4661 19.3724 13.4922 19.2422C13.5443 18.9557 13.5703 18.7995 13.5703 18.7734C13.5964 18.7474 13.6094 18.7083 13.6094 18.6562C13.5573 18.3438 13.5182 18.1745 13.4922 18.1484C13.4661 18.0964 13.4271 18.0703 13.375 18.0703C13.375 17.9401 13.362 17.849 13.3359 17.7969C13.3359 17.7448 13.3359 17.6667 13.3359 17.5625C13.4661 17.3542 13.5052 17.224 13.4531 17.1719C13.401 17.1198 13.401 17.0677 13.4531 17.0156C13.2969 16.7292 13.1797 16.5859 13.1016 16.5859C13.0495 16.5599 13.0234 16.5208 13.0234 16.4688C13.0755 16.2083 13.0755 16.0911 13.0234 16.1172C12.9974 16.1172 12.9583 16.0911 12.9062 16.0391C12.9323 15.7005 12.9193 15.5052 12.8672 15.4531C12.8151 15.401 12.7891 15.349 12.7891 15.2969C12.6068 14.9583 12.5156 14.724 12.5156 14.5938C12.5417 14.4375 12.5156 14.2943 12.4375 14.1641C12.3854 13.8776 12.3594 13.7214 12.3594 13.6953C12.3594 13.6172 12.3333 13.5391 12.2812 13.4609C12.2552 13.3568 12.2292 13.2396 12.2031 13.1094C12.2031 12.7969 12.1901 12.6276 12.1641 12.6016C12.138 12.5755 12.125 12.5495 12.125 12.5234C12.151 12.4193 12.1771 12.3281 12.2031 12.25C12.2292 12.1719 12.2161 12.0677 12.1641 11.9375C12.138 11.8333 12.099 11.7422 12.0469 11.6641C11.9948 11.5859 11.9948 11.5078 12.0469 11.4297C11.8906 11.1432 11.8125 10.9479 11.8125 10.8438C11.8125 10.7396 11.7865 10.6094 11.7344 10.4531C11.7083 10.349 11.6823 10.2578 11.6562 10.1797C11.6302 10.0755 11.6172 9.95833 11.6172 9.82812C11.513 9.51562 11.4609 9.30729 11.4609 9.20312C11.487 9.07292 11.4609 8.96875 11.3828 8.89062C11.4609 8.73438 11.4609 8.59115 11.3828 8.46094C11.3047 8.33073 11.2396 8.22656 11.1875 8.14844C11.2656 7.83594 11.2266 7.5625 11.0703 7.32812C10.9401 7.09375 10.9141 6.83333 10.9922 6.54688C10.862 6.44271 10.8359 6.28646 10.9141 6.07812C10.9922 5.86979 10.9661 5.72656 10.8359 5.64844C10.8099 5.4401 10.7839 5.32292 10.7578 5.29688C10.7318 5.24479 10.6927 5.19271 10.6406 5.14062C10.6667 4.88021 10.6016 4.6849 10.4453 4.55469C10.2891 4.78906 10.1979 4.91927 10.1719 4.94531C10.1719 4.97135 10.1328 4.97135 10.0547 4.94531C9.95052 5.17969 9.89844 5.3099 9.89844 5.33594C9.89844 5.33594 9.88542 5.375 9.85938 5.45312C9.72917 5.66146 9.61198 5.79167 9.50781 5.84375C9.42969 5.89583 9.41667 5.98698 9.46875 6.11719C9.3125 6.2474 9.20833 6.33854 9.15625 6.39062C9.13021 6.41667 9.10417 6.45573 9.07812 6.50781C8.97396 6.71615 8.89583 6.8724 8.84375 6.97656C8.79167 7.05469 8.73958 7.14583 8.6875 7.25C8.63542 7.30208 8.59635 7.35417 8.57031 7.40625C8.54427 7.45833 8.54427 7.54948 8.57031 7.67969C8.4401 7.88802 8.32292 8.03125 8.21875 8.10938C8.11458 8.1875 8.0625 8.33073 8.0625 8.53906C7.88021 8.92969 7.73698 9.1901 7.63281 9.32031C7.52865 9.42448 7.41146 9.54167 7.28125 9.67188C7.17708 9.95833 7.11198 10.1276 7.08594 10.1797C7.08594 10.2057 7.0599 10.2188 7.00781 10.2188C6.95573 10.4271 6.85156 10.5703 6.69531 10.6484C6.53906 10.8047 6.4349 10.9349 6.38281 11.0391C6.35677 11.1432 6.29167 11.2214 6.1875 11.2734C6.08333 11.5078 6.00521 11.651 5.95312 11.7031C5.92708 11.7552 5.88802 11.8203 5.83594 11.8984C5.73177 12.0807 5.64062 12.276 5.5625 12.4844C5.48437 12.6927 5.38021 12.862 5.25 12.9922C5.19792 13.1484 5.15885 13.2526 5.13281 13.3047C5.13281 13.3307 5.10677 13.3568 5.05469 13.3828C5.02865 13.6953 4.97656 13.8906 4.89844 13.9688C4.89844 14.099 4.8724 14.2031 4.82031 14.2812C4.79427 14.3594 4.75521 14.4245 4.70312 14.4766C4.70312 14.6849 4.66406 14.8411 4.58594 14.9453C4.53385 15.0495 4.46875 15.1667 4.39062 15.2969C4.39062 15.4271 4.36458 15.5312 4.3125 15.6094C4.28646 15.6615 4.28646 15.7526 4.3125 15.8828C4.20833 16.1172 4.13021 16.2734 4.07812 16.3516C4.02604 16.4036 3.98698 16.4688 3.96094 16.5469C3.98698 16.7812 3.97396 16.9766 3.92187 17.1328C3.89583 17.263 3.88281 17.3932 3.88281 17.5234C3.88281 17.6276 3.81771 17.7188 3.6875 17.7969C3.71354 18.0833 3.71354 18.3177 3.6875 18.5C3.6875 18.6562 3.63542 18.7734 3.53125 18.8516C3.55729 19.138 3.57031 19.3333 3.57031 19.4375C3.57031 19.5156 3.54427 19.6198 3.49219 19.75C3.38802 20.0625 3.34896 20.3229 3.375 20.5312C3.40104 20.7396 3.34896 20.8958 3.21875 21C3.19271 21.1823 3.19271 21.3516 3.21875 21.5078C3.24479 21.6641 3.28385 21.8073 3.33594 21.9375L3.21875 22.3672C3.24479 22.7057 3.27083 22.9141 3.29687 22.9922C3.32292 23.0443 3.32292 23.0964 3.29687 23.1484C3.19271 23.3828 3.16667 23.5 3.21875 23.5C3.27083 23.474 3.32292 23.5 3.375 23.5781C3.27083 23.7344 3.29687 23.9297 3.45312 24.1641C3.47917 24.3464 3.49219 24.4766 3.49219 24.5547C3.49219 24.6068 3.50521 24.6589 3.53125 24.7109C3.63542 25.0495 3.70052 25.2188 3.72656 25.2188C3.83073 25.5052 3.89583 25.6615 3.92187 25.6875C3.97396 25.6875 3.97396 25.7266 3.92187 25.8047C4.07812 26.0391 4.16927 26.1693 4.19531 26.1953C4.22135 26.2214 4.26042 26.2604 4.3125 26.3125C4.23437 26.5729 4.33854 26.7292 4.625 26.7812C4.75521 26.9375 4.84635 27.0547 4.89844 27.1328C4.95052 27.1849 5.02865 27.224 5.13281 27.25C5.34115 27.4583 5.4974 27.6146 5.60156 27.7188C5.73177 27.8229 5.86198 27.9401 5.99219 28.0703C6.14844 28.0443 6.30469 28.0312 6.46094 28.0312C6.61719 28.0312 6.72135 28.0964 6.77344 28.2266C6.95573 28.2526 7.125 28.3047 7.28125 28.3828C7.46354 28.4349 7.64583 28.5 7.82812 28.5781C8.14062 28.5781 8.3099 28.5911 8.33594 28.6172C8.36198 28.6432 8.40104 28.6562 8.45312 28.6562C8.71354 28.6302 8.88281 28.6302 8.96094 28.6562C9.03906 28.6823 9.10417 28.6432 9.15625 28.5391C9.72917 28.5911 10.1198 28.5651 10.3281 28.4609C10.6406 28.3828 10.8359 28.3958 10.9141 28.5C10.9922 28.5781 11.0964 28.6432 11.2266 28.6953C11.2526 28.7995 11.2656 28.8906 11.2656 28.9688C11.2917 29.0469 11.3047 29.151 11.3047 29.2812C11.0703 29.4896 10.9271 29.5938 10.875 29.5938C10.849 29.5938 10.8229 29.6068 10.7969 29.6328C10.6667 29.8411 10.5885 29.9583 10.5625 29.9844C10.5365 29.9844 10.5234 30.0234 10.5234 30.1016C10.3411 30.1797 10.237 30.2708 10.2109 30.375C10.2109 30.4531 10.1589 30.5052 10.0547 30.5312C9.84635 30.8177 9.66406 30.974 9.50781 31C9.35156 31.026 9.15625 31.0391 8.92187 31.0391C8.81771 31.0391 8.71354 31.026 8.60937 31C8.50521 30.974 8.40104 30.9609 8.29687 30.9609C8.01042 30.987 7.77604 31 7.59375 31C7.4375 31 7.28125 31.013 7.125 31.0391C6.89062 30.987 6.68229 30.9609 6.5 30.9609C6.34375 30.9349 6.20052 30.9479 6.07031 31C6.01823 30.9479 5.9401 30.9219 5.83594 30.9219C5.73177 30.8958 5.64062 30.8958 5.5625 30.9219C5.48437 30.8698 5.40625 30.8307 5.32812 30.8047C5.27604 30.7526 5.19792 30.7005 5.09375 30.6484C4.85937 30.7005 4.66406 30.6875 4.50781 30.6094C4.3776 30.5052 4.20833 30.4531 4 30.4531C3.71354 30.349 3.55729 30.2448 3.53125 30.1406C3.50521 30.0365 3.42708 29.9714 3.29687 29.9453C3.14062 29.8672 3.04948 29.7891 3.02344 29.7109C3.02344 29.6328 2.97135 29.5938 2.86719 29.5938C2.6849 29.3854 2.58073 29.2812 2.55469 29.2812C2.55469 29.2812 2.55469 29.2552 2.55469 29.2031C2.24219 28.9688 2.07292 28.8255 2.04687 28.7734C1.94271 28.5391 1.86458 28.4219 1.8125 28.4219C1.78646 28.3958 1.7474 28.3698 1.69531 28.3438C1.69531 28.0573 1.69531 27.888 1.69531 27.8359C1.69531 27.7839 1.68229 27.7318 1.65625 27.6797C1.60417 27.5755 1.53906 27.4844 1.46094 27.4062C1.38281 27.3281 1.31771 27.224 1.26562 27.0938C1.29167 26.8073 1.2526 26.638 1.14844 26.5859C1.14844 26.3255 1.13542 26.1823 1.10937 26.1562L0.875 25.4922C0.822917 25.1016 0.822917 24.8281 0.875 24.6719C0.927083 24.5156 0.901042 24.3724 0.796875 24.2422C0.822917 23.9297 0.822917 23.7474 0.796875 23.6953C0.848958 23.5651 0.861979 23.4479 0.835937 23.3438C0.809896 23.2396 0.796875 23.1224 0.796875 22.9922C0.822917 22.7057 0.848958 22.5365 0.875 22.4844C0.927083 22.4062 0.927083 22.3151 0.875 22.2109C0.953125 22.1589 0.992187 22.0938 0.992187 22.0156C1.01823 21.9115 1.05729 21.8203 1.10937 21.7422C1.03125 21.612 1.00521 21.4688 1.03125 21.3125C1.08333 21.1302 1.08333 20.9609 1.03125 20.8047C1.13542 20.7266 1.1875 20.5833 1.1875 20.375C1.21354 20.1406 1.20052 19.9323 1.14844 19.75C1.2526 19.5677 1.30469 19.4505 1.30469 19.3984C1.33073 19.3464 1.31771 19.3203 1.26562 19.3203C1.39583 19.1901 1.44792 19.0208 1.42187 18.8125C1.42187 18.6042 1.46094 18.4089 1.53906 18.2266C1.61719 17.9401 1.68229 17.7578 1.73437 17.6797C1.78646 17.5755 1.79948 17.4714 1.77344 17.3672C1.95573 17.2109 2.02083 17.1198 1.96875 17.0938C1.94271 17.0417 1.94271 16.9635 1.96875 16.8594C2.04687 16.651 2.07292 16.5339 2.04687 16.5078C2.04687 16.4818 2.0599 16.4427 2.08594 16.3906C2.21615 16.1042 2.28125 15.9479 2.28125 15.9219C2.30729 15.8958 2.30729 15.8438 2.28125 15.7656C2.35937 15.6875 2.39844 15.5833 2.39844 15.4531C2.39844 15.2969 2.46354 15.1797 2.59375 15.1016C2.59375 14.9974 2.60677 14.9062 2.63281 14.8281C2.6849 14.75 2.73698 14.6589 2.78906 14.5547L2.98437 13.9688C3.14062 13.6042 3.28385 13.3828 3.41406 13.3047C3.54427 13.2005 3.60937 13.0443 3.60937 12.8359C3.81771 12.6797 3.90885 12.5885 3.88281 12.5625C3.85677 12.5365 3.84375 12.4974 3.84375 12.4453C3.97396 12.263 4.05208 12.1589 4.07812 12.1328C4.13021 12.0807 4.18229 12.0417 4.23437 12.0156C4.26042 11.8854 4.29948 11.7943 4.35156 11.7422C4.42969 11.6901 4.49479 11.599 4.54687 11.4688C4.70312 11.1823 4.80729 11.026 4.85937 11C4.91146 10.974 4.96354 10.9349 5.01562 10.8828C5.11979 10.5964 5.1849 10.4401 5.21094 10.4141C5.23698 10.362 5.27604 10.3099 5.32812 10.2578C5.38021 10.1536 5.44531 10.0625 5.52344 9.98438C5.60156 9.90625 5.66667 9.82812 5.71875 9.75C5.74479 9.61979 5.78385 9.45052 5.83594 9.24219C5.88802 9.13802 5.9401 9.04688 5.99219 8.96875C6.04427 8.89062 6.09635 8.79948 6.14844 8.69531C6.22656 8.59115 6.26562 8.4349 6.26562 8.22656C6.52604 7.86198 6.69531 7.6276 6.77344 7.52344C6.8776 7.41927 6.96875 7.30208 7.04688 7.17188C7.07292 7.06771 7.09896 6.97656 7.125 6.89844C7.15104 6.82031 7.21615 6.76823 7.32031 6.74219C7.32031 6.63802 7.34635 6.57292 7.39844 6.54688C7.45052 6.49479 7.5026 6.42969 7.55469 6.35156C7.73698 6.14323 7.82812 6.01302 7.82812 5.96094C7.85417 5.88281 7.89323 5.80469 7.94531 5.72656C8.10156 5.6224 8.16667 5.54427 8.14062 5.49219C8.14062 5.41406 8.16667 5.34896 8.21875 5.29688C8.40104 5.08854 8.51823 4.98438 8.57031 4.98438C8.67448 4.85417 8.72656 4.76302 8.72656 4.71094C8.7526 4.65885 8.80469 4.63281 8.88281 4.63281C8.88281 4.5026 8.92188 4.41146 9 4.35938C9.07812 4.30729 9.13021 4.21615 9.15625 4.08594C9.23438 3.90365 9.28646 3.78646 9.3125 3.73438C9.33854 3.68229 9.35156 3.59115 9.35156 3.46094C9.5599 3.14844 9.71615 2.96615 9.82031 2.91406C9.92448 2.86198 9.96354 2.75781 9.9375 2.60156C10.0938 2.41927 10.1979 2.26302 10.25 2.13281C10.3021 1.97656 10.3542 1.83333 10.4062 1.70312C10.6927 1.39062 10.9141 1.20833 11.0703 1.15625C11.2266 1.10417 11.3307 0.986979 11.3828 0.804688C11.6953 0.674479 11.8516 0.609375 11.8516 0.609375C11.8776 0.609375 11.9297 0.596354 12.0078 0.570312C12.3203 0.361979 12.5026 0.309896 12.5547 0.414062L12.8672 0.335938ZM23.4727 28.2461C23.4336 28.1029 23.401 28.0312 23.375 28.0312C23.362 28.0182 23.349 27.9987 23.3359 27.9727C23.2839 27.8555 23.2513 27.7904 23.2383 27.7773C23.1862 27.6732 23.1471 27.6081 23.1211 27.582C23.1081 27.556 23.0885 27.5234 23.0625 27.4844C22.9714 27.4453 22.9128 27.4062 22.8867 27.3672C22.8737 27.3281 22.8411 27.3086 22.7891 27.3086C22.8151 27.2305 22.8021 27.1654 22.75 27.1133C22.6979 27.0612 22.6523 27.0221 22.6133 26.9961C22.5742 26.9049 22.5417 26.8398 22.5156 26.8008C22.4896 26.7487 22.4635 26.6966 22.4375 26.6445C22.4115 26.6055 22.3789 26.5729 22.3398 26.5469C22.3008 26.5078 22.2682 26.4557 22.2422 26.3906C22.2031 26.3646 22.1641 26.332 22.125 26.293C22.0859 26.2539 22.0534 26.2018 22.0273 26.1367C21.9232 26.0065 21.8646 25.9414 21.8516 25.9414C21.8385 25.9284 21.8255 25.9089 21.8125 25.8828C21.7865 25.8438 21.7669 25.7982 21.7539 25.7461C21.7409 25.681 21.7018 25.6354 21.6367 25.6094C21.6237 25.5182 21.5846 25.4531 21.5195 25.4141C21.4414 25.2969 21.3958 25.2318 21.3828 25.2188C21.3698 25.1927 21.3503 25.1862 21.3242 25.1992C21.2852 25.1081 21.2526 25.056 21.2266 25.043C21.2135 25.0169 21.194 24.9974 21.168 24.9844C21.168 24.8932 21.1484 24.8216 21.1094 24.7695C21.0703 24.7174 21.0312 24.6654 20.9922 24.6133C21.0182 24.5482 21.0052 24.5091 20.9531 24.4961C20.9141 24.4701 20.9076 24.431 20.9336 24.3789C20.8815 24.3529 20.849 24.3073 20.8359 24.2422C20.8229 24.1771 20.8034 24.112 20.7773 24.0469C20.7253 23.9167 20.6927 23.8255 20.6797 23.7734C20.6667 23.7214 20.6602 23.6628 20.6602 23.5977C20.6602 23.4674 20.6602 23.4023 20.6602 23.4023C20.6732 23.3893 20.6797 23.3763 20.6797 23.3633L20.7188 23.0703C20.7708 22.888 20.8164 22.7969 20.8555 22.7969C20.8685 22.7318 20.9076 22.6536 20.9727 22.5625C21.0638 22.4583 21.1159 22.3997 21.1289 22.3867C21.1549 22.3607 21.181 22.3281 21.207 22.2891C21.2852 22.224 21.3438 22.1784 21.3828 22.1523C21.4349 22.1133 21.474 22.0677 21.5 22.0156C21.5781 21.9635 21.6302 21.9115 21.6562 21.8594C21.7083 21.8594 21.7409 21.8398 21.7539 21.8008C21.7669 21.7617 21.806 21.7487 21.8711 21.7617C21.8711 21.6966 21.8841 21.6576 21.9102 21.6445C21.9492 21.6185 21.9818 21.5924 22.0078 21.5664C22.2161 21.4883 22.3333 21.4167 22.3594 21.3516C22.4896 21.3125 22.5677 21.2865 22.5938 21.2734C22.6849 21.2474 22.776 21.2018 22.8672 21.1367C23.0234 21.0977 23.1211 21.0781 23.1602 21.0781C23.1992 21.0781 23.2383 21.0716 23.2773 21.0586C23.4076 20.9935 23.4922 20.9544 23.5312 20.9414C23.5833 20.9154 23.6354 20.9023 23.6875 20.9023C23.8438 20.9154 23.9414 20.9154 23.9805 20.9023C24.0326 20.8763 24.0846 20.8633 24.1367 20.8633C24.1628 20.8633 24.1953 20.8698 24.2344 20.8828C24.2865 20.8828 24.332 20.8828 24.3711 20.8828C24.4883 20.8958 24.5599 20.9089 24.5859 20.9219C24.625 20.9349 24.6641 20.9414 24.7031 20.9414C24.7292 20.9805 24.7617 21.0065 24.8008 21.0195C24.8529 21.0326 24.9049 21.0456 24.957 21.0586C25.0482 21.1628 25.1328 21.2344 25.2109 21.2734C25.2891 21.3255 25.3346 21.3711 25.3477 21.4102C25.3607 21.4362 25.3867 21.4492 25.4258 21.4492C25.4258 21.5273 25.4388 21.612 25.4648 21.7031C25.5039 21.7812 25.5365 21.8529 25.5625 21.918C25.5885 22.0482 25.6016 22.1393 25.6016 22.1914C25.6146 22.2305 25.6341 22.2695 25.6602 22.3086C25.6602 22.4518 25.6341 22.543 25.582 22.582C25.5299 22.6081 25.5104 22.6732 25.5234 22.7773C25.4323 22.8294 25.3737 22.9401 25.3477 23.1094C25.2826 23.0833 25.237 23.0833 25.2109 23.1094C25.1849 23.1354 25.1458 23.1549 25.0938 23.168C25.0026 23.2591 24.9505 23.3307 24.9375 23.3828C24.9375 23.4219 24.9115 23.4414 24.8594 23.4414C24.7161 23.5195 24.6315 23.5716 24.6055 23.5977C24.5794 23.6237 24.5534 23.6497 24.5273 23.6758C24.4622 23.7018 24.4102 23.7344 24.3711 23.7734C24.3451 23.7995 24.2995 23.819 24.2344 23.832C24.2083 23.7669 24.1758 23.7214 24.1367 23.6953C24.0977 23.6562 24.0586 23.6172 24.0195 23.5781C24.0456 23.4219 24.0586 23.3438 24.0586 23.3438C24.0846 23.2396 24.1107 23.1745 24.1367 23.1484C24.1758 23.1094 24.2018 23.0638 24.2148 23.0117C24.1758 22.8424 24.1562 22.7383 24.1562 22.6992C24.1562 22.6471 24.1432 22.5951 24.1172 22.543C24.0911 22.5169 24.0586 22.4909 24.0195 22.4648C23.9935 22.4258 23.9935 22.3867 24.0195 22.3477C23.9544 22.3477 23.9089 22.3281 23.8828 22.2891C23.8698 22.25 23.8307 22.2435 23.7656 22.2695C23.7396 22.1914 23.681 22.1523 23.5898 22.1523C23.4987 22.1393 23.4336 22.1003 23.3945 22.0352C23.2513 22.0482 23.1536 22.0612 23.1016 22.0742C23.0625 22.0872 23.0169 22.0938 22.9648 22.0938C22.9128 22.0938 22.8477 22.0938 22.7695 22.0938C22.6914 22.0807 22.6198 22.0872 22.5547 22.1133C22.4896 22.1393 22.431 22.1719 22.3789 22.2109C22.3268 22.25 22.2617 22.2695 22.1836 22.2695C22.0794 22.4388 22.0078 22.5625 21.9688 22.6406C21.9688 22.7448 21.9622 22.8229 21.9492 22.875C21.9492 22.9271 21.9362 22.9661 21.9102 22.9922C21.9362 23.0312 21.9557 23.0703 21.9688 23.1094C21.9948 23.1484 22.0273 23.181 22.0664 23.207C22.1185 23.3372 22.1771 23.4479 22.2422 23.5391C22.3203 23.6172 22.3724 23.7083 22.3984 23.8125C22.4635 23.8516 22.5091 23.9036 22.5352 23.9688C22.5612 24.0339 22.6068 24.0859 22.6719 24.125C22.724 24.2422 22.7695 24.3138 22.8086 24.3398C22.8477 24.457 22.8997 24.5352 22.9648 24.5742C23.056 24.7174 23.1081 24.7956 23.1211 24.8086C23.1341 24.8216 23.1341 24.8411 23.1211 24.8672C23.1862 24.9583 23.2318 25.0169 23.2578 25.043C23.2839 25.069 23.3034 25.1146 23.3164 25.1797C23.3555 25.2057 23.388 25.2383 23.4141 25.2773C23.4531 25.3034 23.4922 25.3294 23.5312 25.3555C23.5443 25.4076 23.5573 25.4466 23.5703 25.4727C23.5964 25.4987 23.6094 25.5312 23.6094 25.5703C23.6615 25.6615 23.694 25.7135 23.707 25.7266C23.7331 25.7396 23.7591 25.7591 23.7852 25.7852C23.8112 25.8242 23.8307 25.8633 23.8438 25.9023C23.8698 25.9414 23.9089 25.974 23.9609 26C23.9609 26.1302 23.974 26.1888 24 26.1758C24.026 26.1628 24.0456 26.1693 24.0586 26.1953C24.0846 26.2344 24.1107 26.2669 24.1367 26.293C24.1758 26.319 24.2083 26.3516 24.2344 26.3906C24.2865 26.4948 24.332 26.5664 24.3711 26.6055C24.4102 26.6315 24.4427 26.6771 24.4688 26.7422C24.5469 26.8594 24.599 26.918 24.625 26.918C24.6641 27.0091 24.6901 27.1068 24.7031 27.2109C24.7292 27.3021 24.7943 27.3607 24.8984 27.3867C24.9115 27.5039 24.9375 27.582 24.9766 27.6211C25.0677 27.7383 25.1068 27.7969 25.0938 27.7969C25.0938 27.7969 25.1003 27.8034 25.1133 27.8164C25.1914 27.9336 25.2305 28.0052 25.2305 28.0312C25.2305 28.0573 25.237 28.0833 25.25 28.1094C25.3021 28.2005 25.3477 28.2591 25.3867 28.2852C25.4258 28.4284 25.4453 28.513 25.4453 28.5391C25.4974 28.6562 25.5234 28.7279 25.5234 28.7539C25.5365 28.7799 25.5299 28.793 25.5039 28.793C25.569 28.8841 25.6016 29.0013 25.6016 29.1445C25.6016 29.2878 25.6081 29.3984 25.6211 29.4766C25.543 29.6068 25.5104 29.6784 25.5234 29.6914C25.5495 29.7044 25.556 29.7305 25.543 29.7695C25.5169 29.8346 25.4909 29.8997 25.4648 29.9648C25.4518 30.0299 25.4062 30.069 25.3281 30.082C25.263 30.2253 25.224 30.3034 25.2109 30.3164C25.2109 30.3294 25.1979 30.3424 25.1719 30.3555C25.1068 30.4857 25.0547 30.5638 25.0156 30.5898C24.9896 30.6159 24.9766 30.6549 24.9766 30.707C24.9115 30.7852 24.8724 30.8307 24.8594 30.8438C24.8464 30.8568 24.8464 30.8763 24.8594 30.9023C24.7552 30.9284 24.6836 30.974 24.6445 31.0391C24.6185 31.1172 24.5534 31.1628 24.4492 31.1758C24.4102 31.3581 24.319 31.4557 24.1758 31.4688C24.0716 31.5729 24.0065 31.6445 23.9805 31.6836C23.9544 31.7227 23.9284 31.7617 23.9023 31.8008C23.7982 31.8398 23.7266 31.8789 23.6875 31.918C23.6615 31.957 23.6289 31.9961 23.5898 32.0352L23.375 32.1719C23.349 32.224 23.3099 32.2565 23.2578 32.2695C23.2188 32.2826 23.1797 32.3021 23.1406 32.3281C23.0234 32.4193 22.9583 32.4714 22.9453 32.4844C22.9453 32.4974 22.9323 32.5039 22.9062 32.5039C22.6979 32.543 22.5352 32.582 22.418 32.6211C22.3008 32.6602 22.1706 32.7057 22.0273 32.7578C21.9102 32.7188 21.8451 32.7057 21.832 32.7188C21.832 32.7318 21.8255 32.7383 21.8125 32.7383C21.7214 32.6992 21.6562 32.6862 21.6172 32.6992C21.5781 32.7253 21.5456 32.7188 21.5195 32.6797C21.4414 32.6927 21.3698 32.6992 21.3047 32.6992C21.2526 32.7122 21.194 32.7122 21.1289 32.6992C21.0378 32.6211 20.9727 32.582 20.9336 32.582C20.8294 32.5169 20.7513 32.4844 20.6992 32.4844C20.6471 32.4974 20.5885 32.4909 20.5234 32.4648C20.4974 32.3997 20.4518 32.3542 20.3867 32.3281C20.3346 32.3021 20.2826 32.2565 20.2305 32.1914C20.1654 32.0612 20.1263 31.9896 20.1133 31.9766C20.0872 31.9635 20.0612 31.944 20.0352 31.918C19.9701 31.7878 19.9375 31.7161 19.9375 31.7031C19.9245 31.7031 19.9115 31.6901 19.8984 31.6641C19.8464 31.5339 19.8333 31.4622 19.8594 31.4492C19.8724 31.4492 19.8724 31.4232 19.8594 31.3711C19.8333 31.3451 19.8268 31.3125 19.8398 31.2734C19.8398 31.2344 19.8333 31.1823 19.8203 31.1172C19.7943 31.013 19.7812 30.9479 19.7812 30.9219C19.7812 30.8958 19.7878 30.8698 19.8008 30.8438C19.8008 30.7135 19.8073 30.6419 19.8203 30.6289C19.8333 30.6159 19.8398 30.5964 19.8398 30.5703C19.8529 30.5182 19.8594 30.4661 19.8594 30.4141C19.8594 30.362 19.8659 30.3164 19.8789 30.2773C19.9961 30.069 20.0677 29.9193 20.0938 29.8281C20.1198 29.724 20.1784 29.6589 20.2695 29.6328C20.2826 29.5677 20.3281 29.4831 20.4062 29.3789C20.4583 29.2878 20.5234 29.2161 20.6016 29.1641L20.7578 28.9688C20.849 28.9036 20.901 28.8581 20.9141 28.832C20.9401 28.806 20.9857 28.7995 21.0508 28.8125C21.194 28.6823 21.2721 28.6172 21.2852 28.6172C21.3112 28.6042 21.3633 28.6107 21.4414 28.6367C21.4154 28.6888 21.3893 28.7474 21.3633 28.8125C21.3503 28.8646 21.3568 28.9167 21.3828 28.9688C21.2917 29.099 21.2461 29.1706 21.2461 29.1836C21.2461 29.1966 21.2396 29.2096 21.2266 29.2227C21.1875 29.2878 21.1615 29.3333 21.1484 29.3594C21.1354 29.3854 21.1159 29.418 21.0898 29.457C21.0378 29.5742 21.0117 29.6393 21.0117 29.6523C21.0247 29.6654 21.0312 29.6849 21.0312 29.7109C21.0052 29.8542 20.9922 29.9258 20.9922 29.9258C21.0052 29.9258 21.0117 29.9323 21.0117 29.9453C21.0247 30.0885 21.0247 30.1667 21.0117 30.1797C21.0117 30.1797 21.0117 30.1862 21.0117 30.1992C21.0378 30.2773 21.0443 30.3359 21.0312 30.375C21.0312 30.4141 21.0443 30.4466 21.0703 30.4727C21.0573 30.6029 21.0703 30.6745 21.1094 30.6875C21.1224 30.7266 21.1354 30.7656 21.1484 30.8047C21.1615 30.8438 21.168 30.8828 21.168 30.9219C21.2852 31.026 21.3698 31.1042 21.4219 31.1562C21.474 31.2083 21.5521 31.2344 21.6562 31.2344C21.7604 31.3516 21.8255 31.4036 21.8516 31.3906C21.8906 31.3906 21.9362 31.3906 21.9883 31.3906C22.0664 31.4167 22.151 31.4427 22.2422 31.4688C22.3333 31.4948 22.4115 31.5143 22.4766 31.5273C22.6068 31.4883 22.6979 31.4818 22.75 31.5078C22.8411 31.4948 22.9128 31.4948 22.9648 31.5078C23.0299 31.5208 23.0951 31.5208 23.1602 31.5078C23.2122 31.4818 23.2578 31.4492 23.2969 31.4102C23.3359 31.3841 23.388 31.3646 23.4531 31.3516C23.5703 31.2865 23.6354 31.2214 23.6484 31.1562C23.6745 31.1042 23.7201 31.0781 23.7852 31.0781C23.8893 30.9349 23.9479 30.8503 23.9609 30.8242C23.987 30.7982 24.0195 30.7786 24.0586 30.7656C24.0716 30.7135 24.0846 30.6745 24.0977 30.6484C24.1237 30.6224 24.1432 30.5898 24.1562 30.5508C24.1562 30.4076 24.1562 30.3294 24.1562 30.3164C24.1693 30.3034 24.1758 30.2839 24.1758 30.2578C24.2018 30.0234 24.2018 29.8542 24.1758 29.75C24.1628 29.6458 24.1432 29.5547 24.1172 29.4766C24.0781 29.3594 24.0456 29.2878 24.0195 29.2617C24.0065 29.2227 23.987 29.1901 23.9609 29.1641C23.9479 29.0469 23.9219 28.9753 23.8828 28.9492C23.8438 28.9102 23.8242 28.8581 23.8242 28.793C23.7591 28.6237 23.6745 28.526 23.5703 28.5L23.4727 28.2461ZM32.2422 25.1406C32.2161 25.2969 32.2031 25.3815 32.2031 25.3945C32.2161 25.4076 32.2227 25.4206 32.2227 25.4336C32.2096 25.5378 32.2031 25.6094 32.2031 25.6484C32.2161 25.6875 32.2161 25.7266 32.2031 25.7656C32.1901 25.7917 32.1641 25.8242 32.125 25.8633C32.099 25.8893 32.099 25.9284 32.125 25.9805C32.0469 26.0846 32.0208 26.1432 32.0469 26.1562C32.0729 26.1693 32.0859 26.1823 32.0859 26.1953C32.099 26.3385 32.099 26.4297 32.0859 26.4688C32.0729 26.5078 32.0664 26.5404 32.0664 26.5664C32.0664 26.7357 32.0534 26.8333 32.0273 26.8594C32.0404 26.9375 32.0339 27.0091 32.0078 27.0742C31.9948 27.1393 32.0078 27.1914 32.0469 27.2305C32.0599 27.3737 32.0599 27.4648 32.0469 27.5039C32.0469 27.5299 32.0599 27.5625 32.0859 27.6016C32.0339 27.7578 32.0143 27.849 32.0273 27.875C32.0794 28.0182 32.1055 28.1224 32.1055 28.1875C32.1055 28.2396 32.125 28.2917 32.1641 28.3438C32.125 28.4479 32.1185 28.5456 32.1445 28.6367C32.1706 28.7279 32.1901 28.8255 32.2031 28.9297C32.1901 29.0729 32.1901 29.151 32.2031 29.1641C32.2161 29.1641 32.2227 29.1771 32.2227 29.2031C32.2487 29.2682 32.2617 29.3464 32.2617 29.4375C32.2617 29.5156 32.2812 29.5807 32.3203 29.6328C32.3203 29.8151 32.3659 29.9258 32.457 29.9648C32.444 30.056 32.4505 30.1081 32.4766 30.1211C32.5026 30.1341 32.5156 30.1536 32.5156 30.1797C32.4896 30.2448 32.4961 30.2969 32.5352 30.3359C32.5742 30.362 32.5742 30.3945 32.5352 30.4336C32.5872 30.4596 32.6393 30.4792 32.6914 30.4922C32.7435 30.4922 32.7826 30.5117 32.8086 30.5508C32.8867 30.5508 32.9518 30.5638 33.0039 30.5898C33.069 30.6159 33.1341 30.6094 33.1992 30.5703C33.3034 30.5182 33.3685 30.4661 33.3945 30.4141C33.4857 30.4141 33.5508 30.401 33.5898 30.375C33.6419 30.349 33.694 30.3229 33.7461 30.2969C33.7852 30.2448 33.8177 30.2188 33.8438 30.2188C33.8698 30.2057 33.9023 30.1992 33.9414 30.1992C33.9154 30.2513 33.8893 30.2969 33.8633 30.3359C33.8372 30.375 33.8372 30.4336 33.8633 30.5117C33.7982 30.5378 33.7331 30.5703 33.668 30.6094C33.6159 30.6354 33.5703 30.681 33.5312 30.7461C33.401 30.8503 33.3229 30.9154 33.2969 30.9414C33.2708 30.9674 33.2318 30.9805 33.1797 30.9805C33.0495 31.0977 32.9844 31.1823 32.9844 31.2344C32.9453 31.2604 32.8997 31.2734 32.8477 31.2734C32.8086 31.2865 32.776 31.306 32.75 31.332C32.6719 31.4232 32.6198 31.4688 32.5938 31.4688C32.5807 31.4688 32.5677 31.4883 32.5547 31.5273C32.3724 31.5664 32.2487 31.5794 32.1836 31.5664C32.1315 31.5664 32.0729 31.5664 32.0078 31.5664C31.8776 31.5404 31.793 31.5013 31.7539 31.4492C31.7148 31.4102 31.6693 31.4102 31.6172 31.4492C31.5911 31.3581 31.526 31.319 31.4219 31.332C31.3568 31.2539 31.3112 31.1888 31.2852 31.1367C31.2721 31.0977 31.2396 31.0651 31.1875 31.0391C31.1745 31.013 31.168 30.9805 31.168 30.9414C31.168 30.8893 31.1615 30.8503 31.1484 30.8242C31.1354 30.7982 31.1159 30.7591 31.0898 30.707C31.0768 30.6419 31.0768 30.5833 31.0898 30.5312C31.0117 30.3099 30.9531 30.1536 30.9141 30.0625C30.888 29.9714 30.888 29.8867 30.9141 29.8086C30.888 29.7044 30.8685 29.6393 30.8555 29.6133C30.8424 29.5742 30.8359 29.5482 30.8359 29.5352C30.8359 29.457 30.8294 29.3919 30.8164 29.3398C30.8164 29.2878 30.8164 29.2227 30.8164 29.1445C30.8294 28.9753 30.8229 28.8646 30.7969 28.8125C30.7839 28.7474 30.7773 28.6823 30.7773 28.6172C30.7904 28.474 30.7904 28.3958 30.7773 28.3828C30.7773 28.3698 30.7773 28.3503 30.7773 28.3242C30.7904 28.207 30.7904 28.1354 30.7773 28.1094C30.7643 28.0833 30.7578 28.0573 30.7578 28.0312C30.6146 28.1094 30.5234 28.168 30.4844 28.207C30.4583 28.2331 30.4323 28.2656 30.4062 28.3047C30.3802 28.3828 30.3477 28.4349 30.3086 28.4609C30.2695 28.474 30.237 28.4935 30.2109 28.5195C30.1328 28.5846 30.0872 28.6367 30.0742 28.6758C30.0742 28.7148 30.0612 28.7474 30.0352 28.7734C29.957 28.8255 29.9049 28.8646 29.8789 28.8906C29.8659 28.9036 29.8659 28.9362 29.8789 28.9883C29.8268 29.0143 29.7878 29.0469 29.7617 29.0859C29.7357 29.125 29.6901 29.1576 29.625 29.1836C29.5599 29.2747 29.4948 29.3529 29.4297 29.418C29.3646 29.4831 29.306 29.5286 29.2539 29.5547C29.2148 29.5677 29.1823 29.6003 29.1562 29.6523C29.0521 29.7174 28.987 29.7695 28.9609 29.8086C28.9479 29.8477 28.9219 29.8802 28.8828 29.9062C28.7656 29.9714 28.7005 30.0169 28.6875 30.043C28.6745 30.056 28.6549 30.056 28.6289 30.043C28.4596 30.1862 28.375 30.2773 28.375 30.3164C28.2448 30.3685 28.1667 30.4141 28.1406 30.4531C28.1146 30.4922 28.0625 30.5052 27.9844 30.4922C27.8542 30.5703 27.724 30.6029 27.5938 30.5898C27.4635 30.5638 27.3594 30.5378 27.2812 30.5117C27.2292 30.4857 27.1901 30.4661 27.1641 30.4531C27.138 30.4401 27.099 30.4271 27.0469 30.4141C26.9297 30.349 26.8581 30.2969 26.832 30.2578C26.806 30.2057 26.7604 30.1667 26.6953 30.1406C26.7344 30.0755 26.7344 30.0169 26.6953 29.9648C26.6562 29.8997 26.6237 29.8477 26.5977 29.8086C26.6107 29.7435 26.6107 29.6979 26.5977 29.6719C26.5846 29.6328 26.5716 29.6003 26.5586 29.5742C26.5456 29.418 26.5456 29.3333 26.5586 29.3203C26.5716 29.3073 26.5781 29.2943 26.5781 29.2812C26.5781 29.2292 26.5716 29.1836 26.5586 29.1445C26.5456 29.0924 26.5456 29.0404 26.5586 28.9883C26.6107 28.8451 26.6302 28.7409 26.6172 28.6758C26.6172 28.6107 26.6302 28.5521 26.6562 28.5C26.6953 28.4349 26.7083 28.3893 26.6953 28.3633C26.6953 28.3242 26.7018 28.2917 26.7148 28.2656C26.7799 28.1615 26.8125 28.0964 26.8125 28.0703C26.8385 27.9271 26.8581 27.8555 26.8711 27.8555C26.8971 27.7643 26.9232 27.7122 26.9492 27.6992C26.9883 27.6732 26.9948 27.6341 26.9688 27.582C27.0208 27.4909 27.0469 27.4323 27.0469 27.4062C27.0599 27.3802 27.0729 27.3542 27.0859 27.3281C27.138 27.3151 27.1771 27.2826 27.2031 27.2305C27.2292 27.1784 27.2292 27.1198 27.2031 27.0547C27.3203 27.0026 27.3789 26.957 27.3789 26.918C27.3789 26.8659 27.3919 26.8203 27.418 26.7812C27.5091 26.7161 27.5938 26.6641 27.6719 26.625C27.75 26.5729 27.7891 26.4883 27.7891 26.3711C27.8672 26.2799 27.9258 26.2279 27.9648 26.2148C28.0169 26.1888 28.0495 26.1432 28.0625 26.0781C28.1016 26.0521 28.1341 26.026 28.1602 26C28.1862 25.9609 28.2122 25.9284 28.2383 25.9023C28.3034 25.8372 28.3359 25.7982 28.3359 25.7852C28.3359 25.7721 28.349 25.7526 28.375 25.7266C28.5182 25.6484 28.6029 25.5964 28.6289 25.5703C28.7201 25.4661 28.7786 25.401 28.8047 25.375C28.8307 25.349 28.8698 25.3294 28.9219 25.3164C29.026 25.2253 29.1302 25.1536 29.2344 25.1016C29.2865 25.0755 29.3255 25.0625 29.3516 25.0625C29.3906 25.0495 29.4232 25.0234 29.4492 24.9844C29.5664 24.9583 29.6706 24.9323 29.7617 24.9062C29.944 24.8151 30.0807 24.7826 30.1719 24.8086C30.263 24.8216 30.3737 24.8216 30.5039 24.8086C30.6341 24.8607 30.7122 24.8997 30.7383 24.9258C30.7773 24.9518 30.8099 24.9714 30.8359 24.9844C30.875 24.9844 30.9206 24.9779 30.9727 24.9648C31.0247 24.9518 31.0703 24.9583 31.1094 24.9844C31.2396 25.0885 31.3112 25.1406 31.3242 25.1406C31.3503 25.1406 31.3763 25.1536 31.4023 25.1797C31.5586 25.2578 31.6758 25.2708 31.7539 25.2188C31.832 25.1667 31.9036 25.1211 31.9688 25.082C32.0208 25.0951 32.0664 25.1016 32.1055 25.1016C32.1576 25.0885 32.2031 25.1016 32.2422 25.1406ZM29.8398 26C29.7747 26 29.7292 25.987 29.7031 25.9609C29.6901 25.9349 29.6706 25.9154 29.6445 25.9023C29.5273 25.8763 29.4297 25.8828 29.3516 25.9219C29.2734 25.9609 29.1823 25.9805 29.0781 25.9805C28.9479 26.0977 28.8828 26.1628 28.8828 26.1758C28.8047 26.2799 28.7461 26.3516 28.707 26.3906C28.668 26.4297 28.6615 26.4818 28.6875 26.5469C28.5312 26.612 28.4531 26.6901 28.4531 26.7812C28.4531 26.8724 28.4076 26.931 28.3164 26.957C28.3034 27.0221 28.2839 27.0807 28.2578 27.1328C28.2318 27.1849 28.2122 27.2435 28.1992 27.3086C28.1602 27.4648 28.1406 27.5495 28.1406 27.5625C28.1536 27.5755 28.1536 27.5951 28.1406 27.6211C28.1146 27.6862 28.082 27.7448 28.043 27.7969C28.0169 27.849 28.0169 27.8945 28.043 27.9336C28.0039 28.0768 27.9779 28.1745 27.9648 28.2266C27.9518 28.2786 27.9323 28.3372 27.9062 28.4023C27.9193 28.5195 27.9258 28.6107 27.9258 28.6758C27.9258 28.7409 27.9323 28.8125 27.9453 28.8906C27.9714 28.9688 27.9844 29.0404 27.9844 29.1055C28.0885 29.2096 28.1406 29.2617 28.1406 29.2617C28.1536 29.2617 28.1602 29.2682 28.1602 29.2812C28.3424 29.3073 28.4401 29.3268 28.4531 29.3398C28.4792 29.3529 28.5182 29.3724 28.5703 29.3984C28.6354 29.3333 28.7005 29.2812 28.7656 29.2422C28.8307 29.2031 28.8763 29.1315 28.9023 29.0273C29.0326 28.9102 29.1107 28.832 29.1367 28.793C29.1758 28.7409 29.2279 28.7018 29.293 28.6758C29.4232 28.5065 29.4883 28.4219 29.4883 28.4219C29.5924 28.3438 29.651 28.2786 29.6641 28.2266C29.6901 28.1745 29.7161 28.1029 29.7422 28.0117C29.8073 27.9596 29.8464 27.9271 29.8594 27.9141C29.8854 27.888 29.8919 27.849 29.8789 27.7969C29.9049 27.7448 29.931 27.6992 29.957 27.6602C29.9961 27.6081 30.0156 27.5495 30.0156 27.4844C30.0807 27.4583 30.1198 27.4258 30.1328 27.3867C30.1589 27.3346 30.2044 27.3086 30.2695 27.3086C30.2826 27.1784 30.3021 27.1068 30.3281 27.0938C30.3542 27.0677 30.3932 27.0547 30.4453 27.0547C30.4714 26.9115 30.4974 26.8073 30.5234 26.7422C30.5495 26.6771 30.5755 26.612 30.6016 26.5469C30.5104 26.4427 30.4648 26.3646 30.4648 26.3125C30.3607 26.2474 30.2956 26.2148 30.2695 26.2148C30.2565 26.2018 30.2435 26.1823 30.2305 26.1562C30.1784 26.1302 30.1263 26.1107 30.0742 26.0977C30.0352 26.0716 29.9896 26.0521 29.9375 26.0391L29.8398 26ZM35.6406 21.6055C35.6406 21.5534 35.6406 21.5143 35.6406 21.4883C35.6536 21.4622 35.6536 21.4167 35.6406 21.3516C35.6667 21.2995 35.6927 21.2409 35.7188 21.1758C35.7578 21.1107 35.7643 21.0456 35.7383 20.9805C35.7904 20.8893 35.8229 20.8307 35.8359 20.8047C35.862 20.7786 35.888 20.7526 35.9141 20.7266C35.9401 20.6224 35.9596 20.5573 35.9727 20.5312C35.9857 20.5052 35.9987 20.4792 36.0117 20.4531C36.0768 20.2839 36.1224 20.1797 36.1484 20.1406C36.1745 20.0885 36.1875 20.0365 36.1875 19.9844L36.3047 19.7891C36.3958 19.6589 36.4544 19.5872 36.4805 19.5742C36.5065 19.5482 36.5195 19.5091 36.5195 19.457C36.5586 19.418 36.5977 19.3724 36.6367 19.3203C36.6888 19.2682 36.7083 19.2096 36.6953 19.1445C36.8255 19.0404 36.9036 18.9688 36.9297 18.9297C36.9688 18.8776 37.0078 18.8451 37.0469 18.832C37.099 18.7669 37.1315 18.7279 37.1445 18.7148C37.1706 18.6888 37.1966 18.6628 37.2227 18.6367C37.2487 18.5195 37.3333 18.4284 37.4766 18.3633C37.5156 18.3112 37.5612 18.2656 37.6133 18.2266C37.6654 18.1875 37.7044 18.1354 37.7305 18.0703C37.8737 17.9922 37.9583 17.9401 37.9844 17.9141C38.0365 17.849 38.0951 17.8034 38.1602 17.7773C38.2253 17.7383 38.2839 17.6862 38.3359 17.6211C38.375 17.6081 38.4141 17.5951 38.4531 17.582C38.4922 17.569 38.5247 17.5365 38.5508 17.4844C38.6549 17.4583 38.7266 17.4258 38.7656 17.3867C38.8047 17.3477 38.8503 17.3151 38.9023 17.2891C39.0846 17.1719 39.2214 17.1068 39.3125 17.0938C39.4036 17.0677 39.4883 17.0221 39.5664 16.957C39.6706 16.931 39.7357 16.918 39.7617 16.918C39.8008 16.918 39.8333 16.9049 39.8594 16.8789C39.9766 16.8398 40.0482 16.8073 40.0742 16.7812C40.1654 16.7682 40.224 16.7552 40.25 16.7422C40.276 16.7161 40.3086 16.6966 40.3477 16.6836C40.3867 16.6576 40.4258 16.651 40.4648 16.6641C40.5169 16.6641 40.5625 16.6576 40.6016 16.6445C40.7969 16.5794 40.9466 16.5404 41.0508 16.5273C41.168 16.5013 41.2917 16.4883 41.4219 16.4883C41.526 16.4883 41.6367 16.5013 41.7539 16.5273C41.8711 16.5404 41.9818 16.5339 42.0859 16.5078C42.2552 16.5469 42.3529 16.5859 42.3789 16.625C42.418 16.6641 42.4766 16.6771 42.5547 16.6641C42.5938 16.7031 42.6328 16.7292 42.6719 16.7422C42.724 16.7552 42.7826 16.7747 42.8477 16.8008C42.9388 16.8659 42.9974 16.9115 43.0234 16.9375C43.0495 16.9635 43.0755 16.9831 43.1016 16.9961C43.2057 17.1003 43.2969 17.1523 43.375 17.1523C43.4531 17.1523 43.5117 17.1784 43.5508 17.2305C43.5378 17.3607 43.5508 17.4583 43.5898 17.5234C43.4857 17.5625 43.401 17.6341 43.3359 17.7383C43.2057 17.7773 43.1211 17.8164 43.082 17.8555C43.056 17.8945 43.0299 17.9401 43.0039 17.9922C42.8607 18.0312 42.776 18.0638 42.75 18.0898C42.724 18.1029 42.6914 18.1224 42.6523 18.1484C42.6003 18.2005 42.5612 18.2331 42.5352 18.2461C42.5091 18.2461 42.4831 18.2591 42.457 18.2852C42.3398 18.3503 42.2487 18.3698 42.1836 18.3438C42.1315 18.3307 42.0924 18.3047 42.0664 18.2656C42.0534 18.2266 42.0078 18.2201 41.9297 18.2461C41.9167 18.168 41.8971 18.1159 41.8711 18.0898C41.8451 18.0508 41.819 18.0182 41.793 17.9922C41.6628 17.888 41.5846 17.8424 41.5586 17.8555C41.5456 17.8555 41.526 17.849 41.5 17.8359C41.3438 17.7708 41.2331 17.7383 41.168 17.7383C41.0898 17.6732 41.0182 17.6471 40.9531 17.6602C40.888 17.6602 40.8229 17.6536 40.7578 17.6406C40.5755 17.6146 40.4518 17.6146 40.3867 17.6406C40.3216 17.6536 40.263 17.6536 40.2109 17.6406C40.0286 17.6927 39.8984 17.7188 39.8203 17.7188C39.7422 17.7057 39.6901 17.7188 39.6641 17.7578C39.612 17.7578 39.5599 17.7578 39.5078 17.7578C39.4688 17.7578 39.4167 17.7643 39.3516 17.7773C39.2604 17.8424 39.1953 17.875 39.1562 17.875C39.1172 17.875 39.0781 17.8815 39.0391 17.8945C38.8958 17.9596 38.8242 17.9987 38.8242 18.0117C38.8242 18.0117 38.8112 18.0182 38.7852 18.0312C38.5508 18.1354 38.4336 18.2396 38.4336 18.3438C38.3424 18.3828 38.2839 18.4349 38.2578 18.5C38.1927 18.513 38.1471 18.5391 38.1211 18.5781C38.0951 18.6172 38.0495 18.6497 37.9844 18.6758C37.9062 18.806 37.8607 18.8906 37.8477 18.9297C37.8346 18.9557 37.8021 18.9753 37.75 18.9883C37.6589 19.1185 37.5938 19.2487 37.5547 19.3789C37.5156 19.4961 37.4701 19.5742 37.418 19.6133C37.3659 19.6523 37.3464 19.7044 37.3594 19.7695C37.3073 19.8607 37.2747 19.9258 37.2617 19.9648C37.2487 19.9909 37.2292 20.0169 37.2031 20.043C37.1641 20.2122 37.125 20.3229 37.0859 20.375C37.0599 20.4141 37.0599 20.4531 37.0859 20.4922C37.0339 20.5573 37.0078 20.6484 37.0078 20.7656C36.9427 20.8828 36.8971 20.9544 36.8711 20.9805C36.8451 21.0065 36.8385 21.0521 36.8516 21.1172C36.8385 21.3385 36.819 21.5013 36.793 21.6055C36.7669 21.7096 36.7539 21.8203 36.7539 21.9375C36.6628 22.0677 36.6237 22.1458 36.6367 22.1719C36.6497 22.1849 36.6562 22.2044 36.6562 22.2305C36.6172 22.3607 36.5977 22.4323 36.5977 22.4453C36.6107 22.4583 36.6042 22.4779 36.5781 22.5039L36.4414 23.0703C36.4154 23.2917 36.3828 23.4544 36.3438 23.5586C36.3177 23.6497 36.3112 23.7409 36.3242 23.832C36.2721 23.9622 36.2461 24.0534 36.2461 24.1055C36.2591 24.1576 36.2461 24.2031 36.207 24.2422C36.194 24.4766 36.2005 24.6979 36.2266 24.9062C36.1745 25.1667 36.1745 25.3424 36.2266 25.4336C36.1615 25.4987 36.1419 25.5768 36.168 25.668C36.207 25.7591 36.207 25.8307 36.168 25.8828C36.194 25.9349 36.207 26 36.207 26.0781C36.207 26.1562 36.207 26.2344 36.207 26.3125C36.181 26.4167 36.168 26.4818 36.168 26.5078C36.168 26.5208 36.1745 26.5404 36.1875 26.5664C36.2266 26.6966 36.2396 26.7943 36.2266 26.8594C36.2135 26.9115 36.207 26.9701 36.207 27.0352C36.2201 27.1914 36.2331 27.2891 36.2461 27.3281C36.2721 27.3542 36.2786 27.3867 36.2656 27.4258C36.2135 27.5299 36.2005 27.5885 36.2266 27.6016C36.2526 27.6146 36.2721 27.6341 36.2852 27.6602C36.2852 27.7773 36.2526 27.849 36.1875 27.875C36.2135 28.1224 36.2396 28.2917 36.2656 28.3828C36.2917 28.474 36.2917 28.5521 36.2656 28.6172C36.3177 28.7604 36.3438 28.8646 36.3438 28.9297C36.3568 28.9948 36.3763 29.0469 36.4023 29.0859C36.3633 29.2031 36.3503 29.2812 36.3633 29.3203C36.3763 29.3594 36.3698 29.3919 36.3438 29.418C36.4349 29.5482 36.474 29.6328 36.4609 29.6719C36.4609 29.7109 36.4674 29.7565 36.4805 29.8086C36.5326 29.8997 36.5521 29.9583 36.5391 29.9844C36.5391 30.0104 36.5521 30.0169 36.5781 30.0039C36.6172 29.9128 36.6562 29.8281 36.6953 29.75C36.7474 29.6589 36.7865 29.5612 36.8125 29.457C36.8646 29.3789 36.9036 29.3333 36.9297 29.3203C36.9688 29.3073 37.0013 29.2878 37.0273 29.2617C37.1055 29.1315 37.1576 29.0143 37.1836 28.9102C37.2096 28.806 37.2617 28.7279 37.3398 28.6758C37.4049 28.5456 37.444 28.4609 37.457 28.4219C37.4831 28.3698 37.5286 28.3307 37.5938 28.3047C37.6458 28.2266 37.6784 28.1615 37.6914 28.1094C37.7044 28.0573 37.7435 28.0182 37.8086 27.9922C37.8216 27.9271 37.8477 27.8685 37.8867 27.8164C37.9388 27.7513 37.9974 27.6927 38.0625 27.6406C38.1406 27.5365 38.2188 27.4779 38.2969 27.4648C38.375 27.4128 38.4141 27.3737 38.4141 27.3477C38.4271 27.3086 38.4466 27.2695 38.4727 27.2305C38.5247 27.2565 38.5638 27.25 38.5898 27.2109C38.6159 27.1719 38.6484 27.1393 38.6875 27.1133C38.7526 27.0742 38.8112 27.0352 38.8633 26.9961C38.9284 26.957 38.974 26.9115 39 26.8594C39.1302 26.8203 39.2083 26.7878 39.2344 26.7617C39.2604 26.7357 39.293 26.7096 39.332 26.6836C39.4102 26.6445 39.4818 26.6185 39.5469 26.6055C39.625 26.5794 39.6836 26.5469 39.7227 26.5078C39.7878 26.5339 39.8529 26.5273 39.918 26.4883C39.9831 26.4492 40.0482 26.4102 40.1133 26.3711C40.1784 26.3451 40.2956 26.332 40.4648 26.332C40.6341 26.332 40.7773 26.3385 40.8945 26.3516C40.9857 26.4297 41.0378 26.4753 41.0508 26.4883C41.0768 26.5013 41.1094 26.5208 41.1484 26.5469C41.2656 26.6641 41.3307 26.7357 41.3438 26.7617C41.3698 26.7747 41.3958 26.7943 41.4219 26.8203C41.4479 26.9115 41.474 26.9831 41.5 27.0352C41.526 27.0742 41.5716 27.1068 41.6367 27.1328C41.6497 27.1719 41.6628 27.2174 41.6758 27.2695C41.6888 27.3086 41.7148 27.3411 41.7539 27.3672C41.7539 27.4453 41.7669 27.5039 41.793 27.543C41.832 27.582 41.8516 27.6406 41.8516 27.7188C41.8776 27.901 41.9036 28.0508 41.9297 28.168C41.9557 28.2721 41.9557 28.3763 41.9297 28.4805C41.9167 28.6367 41.9036 28.7279 41.8906 28.7539C41.8776 28.7669 41.8711 28.7865 41.8711 28.8125C41.8841 28.9297 41.8841 28.9948 41.8711 29.0078C41.8581 29.0208 41.8516 29.0404 41.8516 29.0664C41.8385 29.0924 41.8385 29.125 41.8516 29.1641C41.8646 29.2031 41.8711 29.2422 41.8711 29.2812C41.806 29.4505 41.7734 29.5677 41.7734 29.6328C41.7865 29.6849 41.7865 29.7435 41.7734 29.8086C41.7083 29.9518 41.6628 30.043 41.6367 30.082C41.6107 30.1211 41.6042 30.1732 41.6172 30.2383C41.5911 30.3034 41.5586 30.3555 41.5195 30.3945C41.4805 30.4336 41.4674 30.5052 41.4805 30.6094C41.4154 30.6745 41.3633 30.7656 41.3242 30.8828C41.2982 31 41.2461 31.0911 41.168 31.1562C41.1029 31.3385 41.0638 31.4362 41.0508 31.4492C41.0378 31.4622 41.0182 31.4818 40.9922 31.5078C40.9661 31.5339 40.9336 31.5664 40.8945 31.6055C40.8555 31.6445 40.8164 31.6901 40.7773 31.7422C40.6992 31.8724 40.6406 31.9375 40.6016 31.9375C40.5234 32.0807 40.4714 32.1719 40.4453 32.2109C40.4323 32.25 40.3997 32.2826 40.3477 32.3086C40.3346 32.3607 40.3021 32.3997 40.25 32.4258C40.2109 32.4518 40.1849 32.4974 40.1719 32.5625C40.1198 32.5885 40.0742 32.6211 40.0352 32.6602C40.0091 32.7122 39.9766 32.7578 39.9375 32.7969C39.8073 32.888 39.7292 32.9401 39.7031 32.9531C39.6771 32.9792 39.651 33.0052 39.625 33.0312C39.5469 33.1354 39.5013 33.194 39.4883 33.207C39.3971 33.2461 39.3255 33.2852 39.2734 33.3242C39.2344 33.3763 39.1953 33.4284 39.1562 33.4805C38.9349 33.5195 38.7852 33.6172 38.707 33.7734C38.6289 33.7865 38.5768 33.8385 38.5508 33.9297C38.4727 33.9557 38.4076 33.9883 38.3555 34.0273C38.3034 34.0664 38.2448 34.099 38.1797 34.125C38.0365 34.2292 37.9388 34.2682 37.8867 34.2422C37.8477 34.2292 37.8021 34.2422 37.75 34.2812C37.5938 34.4245 37.5156 34.5221 37.5156 34.5742C37.4505 34.5872 37.4049 34.6068 37.3789 34.6328C37.3529 34.6719 37.3268 34.7174 37.3008 34.7695C37.1836 34.7695 37.1055 34.7826 37.0664 34.8086C37.0404 34.8346 37.0208 34.8672 37.0078 34.9062C36.9036 34.9062 36.819 34.9193 36.7539 34.9453C36.7018 34.9714 36.6367 34.9974 36.5586 35.0234C36.4805 35.0885 36.4219 35.1276 36.3828 35.1406C36.3438 35.1536 36.2982 35.1602 36.2461 35.1602C36.1289 35.1602 36.0508 35.1667 36.0117 35.1797C35.9727 35.2057 35.9336 35.2188 35.8945 35.2188C35.8164 35.0885 35.7578 35.0234 35.7188 35.0234C35.6797 35.0234 35.6667 34.9909 35.6797 34.9258C35.6927 34.7174 35.7448 34.6133 35.8359 34.6133C35.862 34.5612 35.888 34.5156 35.9141 34.4766C35.9401 34.4505 35.9661 34.4049 35.9922 34.3398C35.9661 34.2747 35.9531 34.2031 35.9531 34.125C35.9531 34.0599 35.9401 33.9948 35.9141 33.9297C35.901 33.8646 35.8815 33.806 35.8555 33.7539C35.8294 33.7018 35.8294 33.6432 35.8555 33.5781C35.8164 33.2786 35.7643 33.0703 35.6992 32.9531C35.6471 32.8359 35.6211 32.6992 35.6211 32.543C35.5951 32.4258 35.569 32.3477 35.543 32.3086C35.5299 32.2826 35.5299 32.2565 35.543 32.2305C35.5169 32.1003 35.4844 32.0156 35.4453 31.9766C35.4193 31.9115 35.4062 31.8464 35.4062 31.7812C35.4193 31.7292 35.4062 31.6771 35.3672 31.625C35.3932 31.5469 35.3867 31.4688 35.3477 31.3906C35.3216 31.3125 35.2956 31.2409 35.2695 31.1758L35.2109 30.9414C35.1979 30.7852 35.1849 30.694 35.1719 30.668C35.1719 30.6419 35.1849 30.6224 35.2109 30.6094C35.1589 30.4922 35.1523 30.3945 35.1914 30.3164C35.1393 30.1081 35.1003 29.9714 35.0742 29.9062C35.0612 29.8411 35.0417 29.7695 35.0156 29.6914C35.0156 29.5742 35.0156 29.4701 35.0156 29.3789C35.0156 29.2747 34.9961 29.1901 34.957 29.125C34.957 28.9557 34.957 28.832 34.957 28.7539C34.9701 28.6758 34.9635 28.6042 34.9375 28.5391C34.9375 28.3568 34.9245 28.194 34.8984 28.0508C34.8724 27.8555 34.8594 27.7383 34.8594 27.6992C34.8724 27.6471 34.8789 27.5885 34.8789 27.5234C34.8789 27.4844 34.8789 27.4453 34.8789 27.4062C34.8919 27.3542 34.8854 27.2956 34.8594 27.2305C34.8333 27.0482 34.8333 26.8789 34.8594 26.7227C34.8854 26.5664 34.8789 26.4427 34.8398 26.3516C34.8659 26.3125 34.8789 26.2669 34.8789 26.2148C34.8789 26.1497 34.8789 26.0911 34.8789 26.0391C34.8919 25.8958 34.8919 25.8112 34.8789 25.7852C34.8789 25.7461 34.8789 25.7135 34.8789 25.6875C34.8789 25.6224 34.8854 25.5703 34.8984 25.5312C34.9245 25.4792 34.9375 25.4271 34.9375 25.375C34.9375 25.2448 34.944 25.1602 34.957 25.1211C34.9701 25.069 34.9831 25.0169 34.9961 24.9648C34.9961 24.7695 35.0026 24.6328 35.0156 24.5547C35.0417 24.4635 35.0612 24.3789 35.0742 24.3008L35.1328 23.9297C35.1458 23.8516 35.1458 23.793 35.1328 23.7539C35.1328 23.7018 35.1523 23.6562 35.1914 23.6172C35.1654 23.5781 35.1589 23.5456 35.1719 23.5195C35.1979 23.4935 35.2174 23.4544 35.2305 23.4023C35.2565 23.3503 35.2695 23.2982 35.2695 23.2461C35.2695 23.181 35.2956 23.1224 35.3477 23.0703C35.3216 23.0052 35.3216 22.9596 35.3477 22.9336C35.3737 22.8945 35.3932 22.849 35.4062 22.7969C35.4323 22.7188 35.4388 22.6471 35.4258 22.582C35.4258 22.5039 35.4453 22.4388 35.4844 22.3867C35.4844 22.2435 35.4909 22.1719 35.5039 22.1719C35.5169 22.1719 35.5299 22.1589 35.543 22.1328L35.6406 21.6055ZM39.6055 32.0742C39.6836 31.9831 39.7292 31.9245 39.7422 31.8984C39.7552 31.8854 39.7682 31.8659 39.7812 31.8398C39.8073 31.8008 39.8268 31.7552 39.8398 31.7031C39.8529 31.651 39.8659 31.612 39.8789 31.5859C40.0352 31.3516 40.1198 31.1302 40.1328 30.9219C40.1849 30.9219 40.2174 30.8958 40.2305 30.8438C40.2435 30.7786 40.237 30.7331 40.2109 30.707C40.276 30.5508 40.3281 30.4336 40.3672 30.3555C40.3802 30.2383 40.3932 30.1797 40.4062 30.1797C40.4193 30.1797 40.4258 30.1667 40.4258 30.1406C40.4128 29.9974 40.4062 29.9258 40.4062 29.9258C40.4193 29.9258 40.4258 29.9193 40.4258 29.9062C40.4518 29.8151 40.4583 29.763 40.4453 29.75C40.4453 29.724 40.4453 29.7044 40.4453 29.6914C40.4714 29.6393 40.4844 29.5938 40.4844 29.5547C40.4974 29.5026 40.4909 29.444 40.4648 29.3789C40.5169 29.3138 40.543 29.2161 40.543 29.0859C40.5169 28.9818 40.4974 28.8971 40.4844 28.832C40.4714 28.7669 40.4779 28.6953 40.5039 28.6172C40.4648 28.5651 40.4388 28.5 40.4258 28.4219C40.4128 28.3438 40.3997 28.2656 40.3867 28.1875C40.2956 28.0833 40.25 28.0247 40.25 28.0117C40.1979 27.9336 40.1654 27.862 40.1523 27.7969C40.1003 27.7839 40.0612 27.7708 40.0352 27.7578C40.0221 27.7318 39.9961 27.7122 39.957 27.6992C39.8529 27.5951 39.7812 27.5299 39.7422 27.5039C39.7161 27.4779 39.6901 27.4583 39.6641 27.4453C39.599 27.4323 39.5339 27.4323 39.4688 27.4453C39.4036 27.4583 39.332 27.4518 39.2539 27.4258C39.1497 27.5039 39.0911 27.5365 39.0781 27.5234C39.0781 27.5104 39.0651 27.5039 39.0391 27.5039C39.013 27.543 38.987 27.5885 38.9609 27.6406C38.9479 27.6797 38.9154 27.7057 38.8633 27.7188C38.7852 27.8359 38.7135 27.9141 38.6484 27.9531C38.5443 28.1094 38.4661 28.2331 38.4141 28.3242C38.362 28.4023 38.3359 28.4935 38.3359 28.5977C38.2448 28.7409 38.1862 28.819 38.1602 28.832C38.1471 28.8451 38.1276 28.8646 38.1016 28.8906C38.1146 29.0078 38.0951 29.0859 38.043 29.125C37.9909 29.151 37.9518 29.1966 37.9258 29.2617C37.9128 29.3789 37.8997 29.4505 37.8867 29.4766C37.8737 29.5026 37.8802 29.5417 37.9062 29.5938C37.8411 29.6849 37.8086 29.7435 37.8086 29.7695C37.8216 29.7826 37.8281 29.8021 37.8281 29.8281C37.737 29.9714 37.6849 30.082 37.6719 30.1602C37.6719 30.2383 37.6523 30.3034 37.6133 30.3555C37.6133 30.4466 37.6068 30.5052 37.5938 30.5312C37.5807 30.5443 37.5742 30.5703 37.5742 30.6094C37.5612 30.7005 37.5482 30.7591 37.5352 30.7852C37.5352 30.8112 37.5221 30.8307 37.4961 30.8438C37.431 31.0781 37.3789 31.306 37.3398 31.5273C37.3529 31.6185 37.3464 31.6771 37.3203 31.7031C37.3073 31.7292 37.3008 31.7617 37.3008 31.8008C37.3138 31.918 37.3203 32.0026 37.3203 32.0547C37.3073 32.1328 37.3008 32.224 37.3008 32.3281C37.3008 32.4453 37.3008 32.5365 37.3008 32.6016C37.3008 32.7448 37.3008 32.8229 37.3008 32.8359C37.3138 32.849 37.3203 32.8685 37.3203 32.8945C37.3333 33.0378 37.3464 33.1289 37.3594 33.168C37.3724 33.2201 37.3789 33.2591 37.3789 33.2852L37.418 33.6367C37.457 33.6888 37.4961 33.7344 37.5352 33.7734C37.5742 33.8255 37.5872 33.9036 37.5742 34.0078C37.6393 34.0078 37.6849 33.9883 37.7109 33.9492C37.737 33.9232 37.7695 33.8906 37.8086 33.8516C37.8737 33.8255 37.9323 33.7865 37.9844 33.7344C38.0365 33.6823 38.0951 33.6302 38.1602 33.5781C38.2513 33.5651 38.3164 33.5326 38.3555 33.4805C38.3945 33.4284 38.4596 33.3958 38.5508 33.3828C38.6289 33.2656 38.6875 33.1875 38.7266 33.1484C38.7656 33.1094 38.8047 33.0703 38.8438 33.0312L39 32.8359C39.0391 32.8099 39.0716 32.7773 39.0977 32.7383C39.1237 32.7122 39.1497 32.6862 39.1758 32.6602C39.2018 32.6211 39.2279 32.5885 39.2539 32.5625C39.2799 32.5365 39.306 32.5039 39.332 32.4648C39.4232 32.3867 39.4753 32.3411 39.4883 32.3281C39.5013 32.3151 39.5208 32.3151 39.5469 32.3281C39.5599 32.276 39.5794 32.237 39.6055 32.2109C39.6315 32.1849 39.6315 32.1393 39.6055 32.0742ZM48.6094 29.9648C48.5443 29.9909 48.4987 30.0169 48.4727 30.043C48.4466 30.056 48.401 30.056 48.3359 30.043C48.2969 30.0951 48.2448 30.1341 48.1797 30.1602C48.1146 30.1732 48.069 30.2122 48.043 30.2773C47.8477 30.3424 47.6979 30.401 47.5938 30.4531C47.3594 30.5573 47.1966 30.6289 47.1055 30.668C47.0273 30.707 46.9492 30.7461 46.8711 30.7852C46.7669 30.7591 46.6758 30.7656 46.5977 30.8047C46.5326 30.8438 46.474 30.8828 46.4219 30.9219C46.3047 30.9349 46.1875 30.9349 46.0703 30.9219C45.9531 30.9089 45.862 30.9023 45.7969 30.9023C45.6667 30.8763 45.582 30.8633 45.543 30.8633C45.5169 30.8633 45.5039 30.8503 45.5039 30.8242C45.4518 30.8372 45.4128 30.8372 45.3867 30.8242C45.3607 30.8112 45.3281 30.8047 45.2891 30.8047C45.1589 30.7266 45.0742 30.6875 45.0352 30.6875C44.9961 30.6745 44.9635 30.6549 44.9375 30.6289C44.9375 30.6159 44.9049 30.6029 44.8398 30.5898C44.7878 30.5768 44.7487 30.5833 44.7227 30.6094L44.4492 30.4336C44.332 30.2773 44.2539 30.1992 44.2148 30.1992C44.1107 30.0951 44.0586 30.0169 44.0586 29.9648C44.0065 29.9518 43.9674 29.9323 43.9414 29.9062C43.9154 29.8802 43.8763 29.8607 43.8242 29.8477C43.8242 29.7435 43.8177 29.6849 43.8047 29.6719C43.7917 29.6458 43.7786 29.6003 43.7656 29.5352C43.6875 29.3659 43.6484 29.2812 43.6484 29.2812C43.6354 29.2292 43.6159 29.1901 43.5898 29.1641C43.5638 29.125 43.5443 29.0924 43.5312 29.0664C43.5312 29.0404 43.5312 29.0143 43.5312 28.9883C43.5443 28.9492 43.5443 28.9036 43.5312 28.8516C43.4792 28.7734 43.4531 28.6953 43.4531 28.6172C43.4401 28.526 43.4206 28.4479 43.3945 28.3828C43.3815 28.3307 43.375 28.2786 43.375 28.2266C43.388 28.1745 43.388 28.1354 43.375 28.1094C43.3359 28.0052 43.3164 27.9466 43.3164 27.9336C43.3164 27.9076 43.3294 27.888 43.3555 27.875C43.3164 27.849 43.3099 27.8034 43.3359 27.7383C43.362 27.6732 43.349 27.6276 43.2969 27.6016C43.349 27.5495 43.3685 27.4844 43.3555 27.4062C43.3424 27.3281 43.349 27.2565 43.375 27.1914C43.4141 27.1003 43.4466 27.0026 43.4727 26.8984C43.5117 26.7682 43.5378 26.6901 43.5508 26.6641C43.5768 26.625 43.5964 26.5924 43.6094 26.5664C43.6354 26.4492 43.6549 26.3841 43.668 26.3711C43.681 26.3451 43.6875 26.319 43.6875 26.293C43.7266 26.1367 43.7786 26.026 43.8438 25.9609C43.9089 25.8828 43.9479 25.7917 43.9609 25.6875C44.013 25.6745 44.0456 25.6419 44.0586 25.5898C44.0846 25.5247 44.1237 25.4792 44.1758 25.4531C44.2148 25.362 44.2539 25.3099 44.293 25.2969C44.3451 25.2708 44.3776 25.2318 44.3906 25.1797C44.4688 25.1667 44.5208 25.1406 44.5469 25.1016C44.5859 25.0625 44.6185 25.0169 44.6445 24.9648C44.7227 24.9518 44.7812 24.9258 44.8203 24.8867C44.8724 24.8346 44.9375 24.8021 45.0156 24.7891C45.0417 24.6849 45.0938 24.6198 45.1719 24.5938C45.263 24.5547 45.3346 24.5026 45.3867 24.4375C45.4909 24.4375 45.556 24.3984 45.582 24.3203C45.7513 24.2943 45.862 24.2552 45.9141 24.2031C45.9661 24.151 46.0247 24.112 46.0898 24.0859C46.181 24.0729 46.2396 24.0599 46.2656 24.0469C46.2917 24.0208 46.3307 24.0013 46.3828 23.9883C46.5 23.8841 46.5586 23.8516 46.5586 23.8906C46.5716 23.9167 46.5911 23.9167 46.6172 23.8906C46.6693 23.8776 46.7148 23.8581 46.7539 23.832C46.806 23.806 46.8646 23.7865 46.9297 23.7734C47.0469 23.7604 47.1185 23.7539 47.1445 23.7539C47.1836 23.7409 47.2227 23.7279 47.2617 23.7148C47.444 23.6888 47.5677 23.6823 47.6328 23.6953C47.6979 23.7214 47.7826 23.7474 47.8867 23.7734C47.9909 23.7995 48.0755 23.806 48.1406 23.793C48.1667 23.819 48.1992 23.8451 48.2383 23.8711C48.2773 23.8841 48.3099 23.9167 48.3359 23.9688C48.4661 24.0599 48.5443 24.125 48.5703 24.1641C48.5964 24.2031 48.6354 24.2357 48.6875 24.2617C48.7786 24.418 48.8372 24.5417 48.8633 24.6328C48.9023 24.7109 48.9479 24.7956 49 24.8867C48.9609 24.9909 48.9479 25.0495 48.9609 25.0625C48.974 25.0625 48.9805 25.0755 48.9805 25.1016C48.9805 25.1276 48.974 25.1667 48.9609 25.2188C48.9479 25.2578 48.9414 25.2969 48.9414 25.3359C48.9544 25.4401 48.9544 25.5247 48.9414 25.5898C48.9284 25.6549 48.9219 25.7201 48.9219 25.7852C48.7917 25.9674 48.6745 26.0846 48.5703 26.1367C48.4792 26.1888 48.4076 26.2669 48.3555 26.3711C48.2383 26.4102 48.1797 26.4427 48.1797 26.4688C48.1927 26.4948 48.1862 26.5143 48.1602 26.5273C48.056 26.5924 47.9974 26.638 47.9844 26.6641C47.9714 26.6771 47.9648 26.6966 47.9648 26.7227C47.8607 26.7878 47.763 26.8333 47.6719 26.8594C47.5677 26.8984 47.4961 26.944 47.457 26.9961C47.418 27.0352 47.3724 27.0677 47.3203 27.0938C47.2812 27.1198 47.2292 27.1393 47.1641 27.1523C47.112 27.1654 47.0664 27.2044 47.0273 27.2695C46.8841 27.2956 46.793 27.3542 46.7539 27.4453C46.5977 27.4453 46.5 27.4453 46.4609 27.4453C46.4219 27.4323 46.3893 27.4258 46.3633 27.4258C46.2201 27.5039 46.1484 27.5365 46.1484 27.5234C46.1484 27.5104 46.1419 27.5104 46.1289 27.5234C46.0898 27.5365 46.0443 27.5365 45.9922 27.5234C45.9401 27.5104 45.8815 27.4974 45.8164 27.4844C45.7904 27.4714 45.7513 27.4779 45.6992 27.5039C45.6471 27.5169 45.6081 27.5234 45.582 27.5234C45.5039 27.5365 45.4388 27.5234 45.3867 27.4844C45.3346 27.4323 45.2565 27.4193 45.1523 27.4453C45.1133 27.4193 45.0742 27.3932 45.0352 27.3672C45.0091 27.3411 44.9701 27.3411 44.918 27.3672C44.9049 27.3802 44.8919 27.4258 44.8789 27.5039C44.8789 27.582 44.9049 27.6081 44.957 27.582C44.9049 27.6471 44.8789 27.7253 44.8789 27.8164C44.8789 27.8945 44.9115 27.9596 44.9766 28.0117C44.9375 28.1549 44.9505 28.2852 45.0156 28.4023C45.0938 28.5065 45.1393 28.6237 45.1523 28.7539C45.2174 28.8581 45.2891 28.9427 45.3672 29.0078C45.4583 29.0599 45.5234 29.138 45.5625 29.2422C45.6667 29.2943 45.7643 29.3529 45.8555 29.418C45.9596 29.4831 46.0638 29.5547 46.168 29.6328C46.2461 29.6589 46.3047 29.6849 46.3438 29.7109C46.3958 29.724 46.4479 29.7305 46.5 29.7305C46.6042 29.8216 46.6888 29.8672 46.7539 29.8672C46.9102 29.9193 47.0013 29.9518 47.0273 29.9648C47.0534 29.9779 47.0794 29.9844 47.1055 29.9844C47.2227 30.0104 47.2943 30.0234 47.3203 30.0234C47.4766 29.9844 47.5677 29.9648 47.5938 29.9648C47.6328 29.9648 47.6719 29.9518 47.7109 29.9258C47.8151 29.8477 47.8932 29.8021 47.9453 29.7891C47.9974 29.763 48.043 29.7305 48.082 29.6914C48.1862 29.6133 48.2383 29.5677 48.2383 29.5547C48.2513 29.5286 48.2708 29.5091 48.2969 29.4961C48.388 29.3659 48.4336 29.2943 48.4336 29.2812C48.4857 29.2682 48.5182 29.2422 48.5312 29.2031C48.5573 29.1641 48.5833 29.1315 48.6094 29.1055C48.6875 29.0143 48.7331 28.9688 48.7461 28.9688C48.7721 28.9557 48.7982 28.9427 48.8242 28.9297C48.8893 28.7995 48.9284 28.7279 48.9414 28.7148C48.9674 28.6888 49 28.6628 49.0391 28.6367C49.2214 28.5326 49.332 28.4609 49.3711 28.4219C49.4753 28.4479 49.5534 28.4349 49.6055 28.3828C49.6576 28.3307 49.7161 28.3177 49.7812 28.3438C49.8073 28.4609 49.8203 28.526 49.8203 28.5391C49.8203 28.5521 49.8268 28.5651 49.8398 28.5781C49.8268 28.6172 49.7878 28.6432 49.7227 28.6562C49.6576 28.6562 49.6315 28.6888 49.6445 28.7539C49.5794 28.9102 49.5339 29.0143 49.5078 29.0664C49.4948 29.1185 49.4622 29.1641 49.4102 29.2031C49.3841 29.3203 49.3125 29.3919 49.1953 29.418C49.1172 29.4961 49.0651 29.5612 49.0391 29.6133C48.9219 29.6393 48.8568 29.6914 48.8438 29.7695L48.6094 29.9648ZM45.6406 26.4297C45.6927 26.4427 45.7578 26.4622 45.8359 26.4883C45.9141 26.5143 45.9661 26.5404 45.9922 26.5664C46.0703 26.5534 46.1419 26.5534 46.207 26.5664C46.2721 26.5664 46.3307 26.5729 46.3828 26.5859C46.5521 26.612 46.6562 26.612 46.6953 26.5859C46.7344 26.5599 46.7799 26.5469 46.832 26.5469C46.9753 26.5599 47.0469 26.5599 47.0469 26.5469C47.0599 26.5208 47.0794 26.5013 47.1055 26.4883C47.2747 26.3581 47.3919 26.2799 47.457 26.2539C47.457 26.2148 47.4635 26.1823 47.4766 26.1562C47.5026 26.1172 47.5221 26.0781 47.5352 26.0391C47.5352 25.987 47.5286 25.9349 47.5156 25.8828C47.5026 25.8177 47.4961 25.7591 47.4961 25.707C47.4961 25.5768 47.4831 25.4987 47.457 25.4727C47.431 25.4336 47.431 25.3945 47.457 25.3555C47.3919 25.2513 47.3333 25.1862 47.2812 25.1602C47.2422 25.1341 47.2227 25.0885 47.2227 25.0234C47.1706 24.9714 47.1315 24.9388 47.1055 24.9258C47.0794 24.9128 47.0664 24.8867 47.0664 24.8477C46.8581 24.7305 46.6953 24.6784 46.5781 24.6914C46.4349 24.7044 46.3633 24.7109 46.3633 24.7109C46.3633 24.6979 46.3568 24.6914 46.3438 24.6914C46.2135 24.7435 46.1289 24.7695 46.0898 24.7695C46.0638 24.7565 46.0312 24.763 45.9922 24.7891C45.888 24.9193 45.8099 25.0039 45.7578 25.043C45.7188 25.069 45.6862 25.1146 45.6602 25.1797C45.543 25.3229 45.4518 25.4206 45.3867 25.4727C45.3346 25.5247 45.3216 25.5768 45.3477 25.6289C45.3086 25.7982 45.3021 25.9023 45.3281 25.9414C45.3672 25.9805 45.3737 26.026 45.3477 26.0781C45.3997 26.1302 45.4518 26.1888 45.5039 26.2539C45.556 26.306 45.6016 26.3646 45.6406 26.4297ZM53.043 17.7188C53.0951 17.8099 53.1146 17.875 53.1016 17.9141C53.1016 17.9401 53.1276 17.9531 53.1797 17.9531C53.1146 18.0573 53.0885 18.1549 53.1016 18.2461C53.1276 18.3372 53.1536 18.4219 53.1797 18.5C53.1536 18.6562 53.1341 18.7344 53.1211 18.7344C53.1081 18.7344 53.1016 18.7474 53.1016 18.7734C53.1536 18.8776 53.1732 18.9427 53.1602 18.9688C53.1471 18.9948 53.1406 19.0143 53.1406 19.0273C53.1276 19.0794 53.1276 19.125 53.1406 19.1641C53.1536 19.2031 53.1406 19.2487 53.1016 19.3008C53.1276 19.431 53.1341 19.5156 53.1211 19.5547C53.1211 19.5807 53.1081 19.6003 53.082 19.6133C53.0951 19.7174 53.1016 19.7891 53.1016 19.8281C53.1146 19.8542 53.1016 19.8802 53.0625 19.9062C53.0885 20.0495 53.1016 20.1471 53.1016 20.1992C53.1016 20.2383 53.0951 20.2904 53.082 20.3555C53.082 20.4727 53.082 20.5508 53.082 20.5898C53.0951 20.6289 53.0885 20.6745 53.0625 20.7266C53.1016 20.8438 53.1146 20.9089 53.1016 20.9219C53.0885 20.9219 53.0755 20.9349 53.0625 20.9609C53.0885 20.987 53.0951 21.0195 53.082 21.0586C53.082 21.0977 53.0755 21.1367 53.0625 21.1758C53.0755 21.3581 53.069 21.4948 53.043 21.5859C53.0299 21.6641 53.0169 21.7487 53.0039 21.8398C53.0169 21.944 53.0169 22.0091 53.0039 22.0352C52.9909 22.0482 52.9844 22.0807 52.9844 22.1328C52.9974 22.25 52.9974 22.3086 52.9844 22.3086C52.9844 22.3086 52.9779 22.3216 52.9648 22.3477C52.9518 22.4258 52.9583 22.4714 52.9844 22.4844C53.0104 22.4844 53.0104 22.5104 52.9844 22.5625C52.9193 22.6797 52.9062 22.7448 52.9453 22.7578C52.9844 22.7578 52.9974 22.7773 52.9844 22.8164C52.9844 22.9076 52.9714 22.9922 52.9453 23.0703C52.9323 23.1484 52.9388 23.2201 52.9648 23.2852C52.9518 23.4544 52.9453 23.5586 52.9453 23.5977C52.9583 23.6237 52.9453 23.6628 52.9062 23.7148C52.9453 23.8451 52.9518 23.9102 52.9258 23.9102C52.9128 23.9102 52.9062 23.9297 52.9062 23.9688C52.9323 24.151 52.9128 24.2812 52.8477 24.3594C52.8737 24.5156 52.8867 24.6133 52.8867 24.6523C52.8867 24.6914 52.8867 24.7565 52.8867 24.8477C52.8607 24.9779 52.8411 25.056 52.8281 25.082C52.8281 25.1081 52.8216 25.1341 52.8086 25.1602C52.8216 25.2253 52.8281 25.2773 52.8281 25.3164C52.8281 25.3555 52.8411 25.401 52.8672 25.4531C52.8542 25.5573 52.8477 25.6224 52.8477 25.6484C52.8607 25.6745 52.8672 25.694 52.8672 25.707C52.8411 25.8503 52.8346 25.9414 52.8477 25.9805C52.8607 26.0195 52.8607 26.0651 52.8477 26.1172C52.8216 26.2344 52.8086 26.3125 52.8086 26.3516C52.8216 26.3906 52.8281 26.4362 52.8281 26.4883C52.8281 26.5404 52.8216 26.5924 52.8086 26.6445C52.7956 26.6836 52.8086 26.7227 52.8477 26.7617C52.8086 26.8008 52.7891 26.8529 52.7891 26.918C52.7891 26.9831 52.7956 27.0547 52.8086 27.1328C52.7826 27.263 52.7891 27.3346 52.8281 27.3477C52.776 27.4128 52.7565 27.4974 52.7695 27.6016C52.7956 27.7057 52.776 27.7708 52.7109 27.7969C52.763 27.888 52.763 27.9596 52.7109 28.0117C52.7109 28.1289 52.7174 28.194 52.7305 28.207C52.7435 28.2201 52.7565 28.2396 52.7695 28.2656C52.7826 28.4089 52.7826 28.487 52.7695 28.5C52.7565 28.5 52.75 28.513 52.75 28.5391C52.763 28.6432 52.763 28.7148 52.75 28.7539C52.737 28.7799 52.7305 28.806 52.7305 28.832C52.7435 28.9622 52.737 29.0469 52.7109 29.0859C52.6979 29.112 52.6914 29.1576 52.6914 29.2227C52.6914 29.3138 52.6914 29.3789 52.6914 29.418C52.7044 29.457 52.6979 29.4896 52.6719 29.5156C52.6979 29.6979 52.6979 29.8021 52.6719 29.8281C52.6458 29.8542 52.6458 29.8867 52.6719 29.9258C52.6458 30.1211 52.6328 30.2578 52.6328 30.3359C52.6458 30.4141 52.6458 30.4922 52.6328 30.5703C52.6198 30.6875 52.6068 30.7591 52.5938 30.7852C52.5938 30.7982 52.5938 30.8177 52.5938 30.8438C52.6198 30.9479 52.6263 31.0065 52.6133 31.0195C52.6133 31.0326 52.6133 31.0456 52.6133 31.0586C52.6263 31.2148 52.6263 31.306 52.6133 31.332C52.6133 31.3581 52.6133 31.3906 52.6133 31.4297C52.6133 31.4688 52.6198 31.5013 52.6328 31.5273C52.6589 31.5664 52.6719 31.6055 52.6719 31.6445C52.6589 31.7227 52.6589 31.7747 52.6719 31.8008C52.6979 31.8268 52.6979 31.8529 52.6719 31.8789C52.763 32.0091 52.8021 32.0807 52.7891 32.0938C52.7891 32.1068 52.7956 32.1263 52.8086 32.1523C52.8216 32.1914 52.8411 32.2305 52.8672 32.2695C52.8932 32.3086 52.9128 32.3411 52.9258 32.3672C52.9518 32.4714 52.9844 32.543 53.0234 32.582C53.0755 32.6211 53.1146 32.6732 53.1406 32.7383C53.2578 32.7773 53.3424 32.8424 53.3945 32.9336C53.4987 32.9336 53.5898 32.9466 53.668 32.9727C53.7461 32.9987 53.8372 33.0052 53.9414 32.9922C54.0977 32.901 54.2474 32.8555 54.3906 32.8555C54.3776 32.9206 54.3646 32.9661 54.3516 32.9922C54.3385 33.0312 54.332 33.0833 54.332 33.1484C54.2279 33.1745 54.1693 33.1875 54.1562 33.1875C54.1432 33.2005 54.1302 33.2201 54.1172 33.2461C54.0651 33.2721 54.026 33.2982 54 33.3242C53.974 33.3503 53.9479 33.3763 53.9219 33.4023C53.8047 33.4023 53.7135 33.4284 53.6484 33.4805C53.5833 33.5456 53.5182 33.5456 53.4531 33.4805C53.388 33.4935 53.3359 33.5195 53.2969 33.5586C53.2578 33.6107 53.2057 33.6237 53.1406 33.5977C53.0104 33.6758 52.9323 33.7018 52.9062 33.6758C52.8151 33.7539 52.6914 33.7799 52.5352 33.7539C52.3919 33.7279 52.2747 33.6758 52.1836 33.5977C52.0273 33.5456 51.9362 33.5065 51.9102 33.4805C51.8841 33.4674 51.8516 33.4479 51.8125 33.4219C51.7995 33.3438 51.7799 33.2982 51.7539 33.2852C51.7409 33.2721 51.7214 33.2526 51.6953 33.2266C51.6042 33.1484 51.5586 33.0898 51.5586 33.0508C51.5586 33.0247 51.5456 33.0182 51.5195 33.0312C51.4935 32.9141 51.4674 32.849 51.4414 32.8359C51.4154 32.8229 51.4154 32.7904 51.4414 32.7383C51.3633 32.6732 51.3307 32.5755 51.3438 32.4453C51.3047 32.3672 51.2721 32.2891 51.2461 32.2109C51.2201 32.1458 51.2135 32.0547 51.2266 31.9375C51.2396 31.8464 51.2396 31.7878 51.2266 31.7617C51.2135 31.7487 51.207 31.7292 51.207 31.7031C51.2201 31.5599 51.2201 31.4622 51.207 31.4102C51.194 31.3581 51.1875 31.2995 51.1875 31.2344C51.1875 31.2083 51.1875 31.1628 51.1875 31.0977C51.1875 31.0326 51.194 30.9674 51.207 30.9023C51.2461 30.7331 51.2591 30.5964 51.2461 30.4922C51.2331 30.375 51.2396 30.2839 51.2656 30.2188C51.2786 30.1797 51.2786 30.1341 51.2656 30.082C51.2526 30.0299 51.2656 29.9844 51.3047 29.9453C51.2917 29.8151 51.2786 29.7435 51.2656 29.7305C51.2656 29.7174 51.2656 29.7044 51.2656 29.6914C51.2786 29.5352 51.2852 29.3724 51.2852 29.2031C51.2982 29.0208 51.3047 28.8385 51.3047 28.6562C51.2917 28.5651 51.2917 28.513 51.3047 28.5C51.3177 28.487 51.3242 28.4674 51.3242 28.4414C51.3242 28.3893 51.3177 28.3242 51.3047 28.2461C51.2917 28.168 51.2917 28.0898 51.3047 28.0117C51.3047 27.9596 51.3112 27.9141 51.3242 27.875C51.3503 27.8229 51.3633 27.7708 51.3633 27.7188C51.3503 27.6146 51.3438 27.5495 51.3438 27.5234C51.3568 27.4844 51.3633 27.4518 51.3633 27.4258C51.3503 27.2956 51.3503 27.2305 51.3633 27.2305C51.3763 27.2174 51.3828 27.2044 51.3828 27.1914C51.3828 27.0482 51.3828 26.9635 51.3828 26.9375C51.3958 26.8984 51.3893 26.8594 51.3633 26.8203C51.3763 26.7943 51.3893 26.7617 51.4023 26.7227C51.4154 26.6836 51.4219 26.6445 51.4219 26.6055C51.3828 26.4622 51.3698 26.3841 51.3828 26.3711C51.4089 26.3581 51.4284 26.3385 51.4414 26.3125C51.4154 26.2734 51.4089 26.2148 51.4219 26.1367C51.4349 26.0456 51.4284 25.9674 51.4023 25.9023C51.4414 25.7721 51.4544 25.694 51.4414 25.668C51.4414 25.6419 51.4544 25.6094 51.4805 25.5703C51.4674 25.5182 51.4544 25.4661 51.4414 25.4141C51.4414 25.362 51.4479 25.2904 51.4609 25.1992C51.513 25.0299 51.526 24.8997 51.5 24.8086C51.474 24.7174 51.4935 24.6393 51.5586 24.5742C51.5065 24.418 51.487 24.2878 51.5 24.1836C51.526 24.0794 51.5391 23.9362 51.5391 23.7539C51.5651 23.6367 51.5716 23.5521 51.5586 23.5C51.5586 23.4349 51.5586 23.3698 51.5586 23.3047C51.5586 23.2396 51.5651 23.1745 51.5781 23.1094C51.5911 23.0443 51.5846 22.9792 51.5586 22.9141C51.5846 22.888 51.5977 22.8424 51.5977 22.7773C51.6107 22.6992 51.6172 22.6341 51.6172 22.582C51.5911 22.5169 51.5781 22.4648 51.5781 22.4258C51.5911 22.3867 51.5977 22.3542 51.5977 22.3281C51.6237 22.1589 51.6432 22.0482 51.6562 21.9961C51.6693 21.931 51.6758 21.8659 51.6758 21.8008C51.6628 21.6315 51.6562 21.4883 51.6562 21.3711C51.6562 21.2539 51.6628 21.1367 51.6758 21.0195C51.7018 20.8763 51.7083 20.7982 51.6953 20.7852C51.6953 20.7721 51.6953 20.7526 51.6953 20.7266C51.7083 20.5833 51.7148 20.5052 51.7148 20.4922C51.7279 20.4792 51.7279 20.4596 51.7148 20.4336C51.7018 20.2904 51.6953 20.1992 51.6953 20.1602C51.7083 20.1211 51.7148 20.082 51.7148 20.043C51.6888 19.9648 51.6758 19.9193 51.6758 19.9062C51.6888 19.8802 51.6953 19.8542 51.6953 19.8281C51.7083 19.6849 51.7083 19.6068 51.6953 19.5938C51.6953 19.5807 51.6953 19.5612 51.6953 19.5352C51.6953 19.4049 51.6953 19.3268 51.6953 19.3008C51.7083 19.2747 51.7148 19.2487 51.7148 19.2227C51.6888 19.1185 51.6693 19.0469 51.6562 19.0078C51.6562 18.9557 51.6562 18.9036 51.6562 18.8516C51.6693 18.7214 51.6693 18.6367 51.6562 18.5977C51.6562 18.5586 51.6693 18.513 51.6953 18.4609C51.6823 18.2005 51.6628 18.0117 51.6367 17.8945C51.6237 17.7643 51.6237 17.6341 51.6367 17.5039C51.6107 17.3867 51.5846 17.3086 51.5586 17.2695C51.5326 17.2305 51.526 17.1914 51.5391 17.1523C51.5651 17.0872 51.5326 17.0026 51.4414 16.8984C51.3503 16.7812 51.2721 16.7031 51.207 16.6641C51.1419 16.6901 51.0964 16.6966 51.0703 16.6836C51.0443 16.6706 51.0052 16.6576 50.9531 16.6445C50.901 16.7357 50.8555 16.7812 50.8164 16.7812C50.7904 16.7682 50.7643 16.7617 50.7383 16.7617C50.5951 16.8398 50.5234 16.8919 50.5234 16.918C50.3932 17.0221 50.3086 17.0807 50.2695 17.0938C50.2305 17.0938 50.1979 17.1133 50.1719 17.1523C49.9766 17.1914 49.8789 17.2435 49.8789 17.3086C49.8268 17.2826 49.7878 17.276 49.7617 17.2891C49.7227 17.3021 49.6771 17.3086 49.625 17.3086C49.599 17.2826 49.5794 17.2565 49.5664 17.2305C49.5404 17.1914 49.5078 17.1654 49.4688 17.1523C49.4948 17.1003 49.4948 17.0677 49.4688 17.0547C49.4427 17.0286 49.4362 16.9831 49.4492 16.918C49.6055 16.8268 49.7096 16.7682 49.7617 16.7422C49.8008 16.7031 49.8529 16.6641 49.918 16.625C50.0091 16.5339 50.0612 16.4883 50.0742 16.4883C50.0872 16.4883 50.1003 16.4818 50.1133 16.4688C50.3086 16.3385 50.4323 16.2409 50.4844 16.1758C50.6016 16.1758 50.6732 16.1367 50.6992 16.0586C50.8164 16.0065 50.901 15.9935 50.9531 16.0195C51.0312 15.9674 51.0964 15.9284 51.1484 15.9023C51.3958 15.8372 51.5391 15.7461 51.5781 15.6289C51.6562 15.6289 51.7279 15.6289 51.793 15.6289C51.8581 15.6159 51.9232 15.6094 51.9883 15.6094C52.0404 15.5703 52.112 15.5573 52.2031 15.5703C52.3333 15.6484 52.418 15.6875 52.457 15.6875C52.5352 15.7656 52.5872 15.8047 52.6133 15.8047C52.6393 15.8047 52.6654 15.8112 52.6914 15.8242C52.7174 15.8503 52.75 15.8828 52.7891 15.9219C52.8281 15.9479 52.8607 15.987 52.8867 16.0391C52.9518 16.2344 52.9779 16.3646 52.9648 16.4297C52.9648 16.4818 52.9714 16.5404 52.9844 16.6055C53.0365 16.7357 53.056 16.8138 53.043 16.8398C53.0299 16.8659 53.0234 16.8919 53.0234 16.918C53.0365 17.0872 53.0495 17.1979 53.0625 17.25C53.0755 17.3021 53.082 17.3542 53.082 17.4062C53.069 17.4714 53.069 17.5365 53.082 17.6016C53.1081 17.6667 53.0951 17.7057 53.043 17.7188Z" fill="#141414"/>
</svg>
