<svg width="600" height="600" viewBox="0 0 600 600" fill="none" xmlns="http://www.w3.org/2000/svg">
<rect x="0.5" y="0.5" width="599" height="599" rx="39.5" fill="white" stroke="black"/>
<mask id="path-2-outside-1_2072_16798" maskUnits="userSpaceOnUse" x="46" y="222" width="501" height="149" fill="black">
<rect fill="white" x="46" y="222" width="501" height="149"/>
<path d="M127.719 330.793C127.719 328.254 127.328 325.975 126.547 323.957C125.831 321.874 124.464 319.986 122.445 318.293C120.427 316.535 117.595 314.81 113.949 313.117C110.303 311.424 105.583 309.667 99.7891 307.844C93.3438 305.76 87.224 303.417 81.4297 300.812C75.7005 298.208 70.6224 295.181 66.1953 291.73C61.8333 288.215 58.3828 284.146 55.8438 279.523C53.3698 274.901 52.1328 269.53 52.1328 263.41C52.1328 257.486 53.4349 252.115 56.0391 247.297C58.6432 242.414 62.2891 238.247 66.9766 234.797C71.6641 231.281 77.1979 228.579 83.5781 226.691C90.0234 224.803 97.0872 223.859 104.77 223.859C115.251 223.859 124.398 225.747 132.211 229.523C140.023 233.299 146.078 238.475 150.375 245.051C154.737 251.626 156.918 259.146 156.918 267.609H127.816C127.816 263.443 126.938 259.797 125.18 256.672C123.487 253.482 120.883 250.975 117.367 249.152C113.917 247.329 109.555 246.418 104.281 246.418C99.2031 246.418 94.9714 247.199 91.5859 248.762C88.2005 250.259 85.6615 252.31 83.9688 254.914C82.276 257.453 81.4297 260.318 81.4297 263.508C81.4297 265.917 82.0156 268.098 83.1875 270.051C84.4245 272.004 86.2474 273.827 88.6562 275.52C91.0651 277.212 94.0273 278.807 97.543 280.305C101.059 281.802 105.128 283.267 109.75 284.699C117.497 287.043 124.301 289.68 130.16 292.609C136.085 295.539 141.033 298.827 145.004 302.473C148.975 306.118 151.97 310.253 153.988 314.875C156.007 319.497 157.016 324.738 157.016 330.598C157.016 336.783 155.811 342.316 153.402 347.199C150.993 352.082 147.51 356.216 142.953 359.602C138.396 362.987 132.96 365.559 126.645 367.316C120.329 369.074 113.266 369.953 105.453 369.953C98.4219 369.953 91.4883 369.042 84.6523 367.219C77.8164 365.331 71.599 362.499 66 358.723C60.4661 354.947 56.0391 350.129 52.7188 344.27C49.3984 338.41 47.7383 331.477 47.7383 323.469H77.1328C77.1328 327.896 77.8164 331.639 79.1836 334.699C80.5508 337.759 82.4714 340.233 84.9453 342.121C87.4844 344.009 90.4792 345.376 93.9297 346.223C97.4453 347.069 101.286 347.492 105.453 347.492C110.531 347.492 114.698 346.776 117.953 345.344C121.273 343.911 123.715 341.926 125.277 339.387C126.905 336.848 127.719 333.983 127.719 330.793ZM170.688 316.242V314.191C170.688 306.444 171.794 299.315 174.008 292.805C176.221 286.229 179.444 280.533 183.676 275.715C187.908 270.897 193.116 267.154 199.301 264.484C205.486 261.75 212.582 260.383 220.59 260.383C228.598 260.383 235.727 261.75 241.977 264.484C248.227 267.154 253.467 270.897 257.699 275.715C261.996 280.533 265.251 286.229 267.465 292.805C269.678 299.315 270.785 306.444 270.785 314.191V316.242C270.785 323.924 269.678 331.053 267.465 337.629C265.251 344.139 261.996 349.836 257.699 354.719C253.467 359.536 248.259 363.28 242.074 365.949C235.889 368.618 228.793 369.953 220.785 369.953C212.777 369.953 205.648 368.618 199.398 365.949C193.214 363.28 187.973 359.536 183.676 354.719C179.444 349.836 176.221 344.139 174.008 337.629C171.794 331.053 170.688 323.924 170.688 316.242ZM198.812 314.191V316.242C198.812 320.669 199.203 324.803 199.984 328.645C200.766 332.486 202.003 335.871 203.695 338.801C205.453 341.665 207.732 343.911 210.531 345.539C213.331 347.167 216.749 347.98 220.785 347.98C224.691 347.98 228.044 347.167 230.844 345.539C233.643 343.911 235.889 341.665 237.582 338.801C239.275 335.871 240.512 332.486 241.293 328.645C242.139 324.803 242.562 320.669 242.562 316.242V314.191C242.562 309.895 242.139 305.858 241.293 302.082C240.512 298.241 239.242 294.855 237.484 291.926C235.792 288.931 233.546 286.587 230.746 284.895C227.947 283.202 224.561 282.355 220.59 282.355C216.618 282.355 213.233 283.202 210.434 284.895C207.699 286.587 205.453 288.931 203.695 291.926C202.003 294.855 200.766 298.241 199.984 302.082C199.203 305.858 198.812 309.895 198.812 314.191ZM347.348 324.348V225.812H376.547V324.348C376.547 333.853 374.464 342.023 370.297 348.859C366.13 355.63 360.434 360.839 353.207 364.484C346.046 368.13 337.973 369.953 328.988 369.953C319.678 369.953 311.443 368.391 304.281 365.266C297.12 362.141 291.488 357.355 287.387 350.91C283.285 344.4 281.234 336.164 281.234 326.203H310.629C310.629 331.411 311.345 335.546 312.777 338.605C314.275 341.665 316.391 343.846 319.125 345.148C321.859 346.451 325.147 347.102 328.988 347.102C332.699 347.102 335.922 346.223 338.656 344.465C341.391 342.707 343.507 340.135 345.004 336.75C346.566 333.365 347.348 329.23 347.348 324.348ZM395.297 316.242V314.191C395.297 306.444 396.404 299.315 398.617 292.805C400.831 286.229 404.053 280.533 408.285 275.715C412.517 270.897 417.725 267.154 423.91 264.484C430.095 261.75 437.191 260.383 445.199 260.383C453.207 260.383 460.336 261.75 466.586 264.484C472.836 267.154 478.077 270.897 482.309 275.715C486.605 280.533 489.861 286.229 492.074 292.805C494.288 299.315 495.395 306.444 495.395 314.191V316.242C495.395 323.924 494.288 331.053 492.074 337.629C489.861 344.139 486.605 349.836 482.309 354.719C478.077 359.536 472.868 363.28 466.684 365.949C460.499 368.618 453.402 369.953 445.395 369.953C437.387 369.953 430.258 368.618 424.008 365.949C417.823 363.28 412.582 359.536 408.285 354.719C404.053 349.836 400.831 344.139 398.617 337.629C396.404 331.053 395.297 323.924 395.297 316.242ZM423.422 314.191V316.242C423.422 320.669 423.812 324.803 424.594 328.645C425.375 332.486 426.612 335.871 428.305 338.801C430.062 341.665 432.341 343.911 435.141 345.539C437.94 347.167 441.358 347.98 445.395 347.98C449.301 347.98 452.654 347.167 455.453 345.539C458.253 343.911 460.499 341.665 462.191 338.801C463.884 335.871 465.121 332.486 465.902 328.645C466.749 324.803 467.172 320.669 467.172 316.242V314.191C467.172 309.895 466.749 305.858 465.902 302.082C465.121 298.241 463.852 294.855 462.094 291.926C460.401 288.931 458.155 286.587 455.355 284.895C452.556 283.202 449.171 282.355 445.199 282.355C441.228 282.355 437.842 283.202 435.043 284.895C432.309 286.587 430.062 288.931 428.305 291.926C426.612 294.855 425.375 298.241 424.594 302.082C423.812 305.858 423.422 309.895 423.422 314.191ZM514.047 354.426C514.047 350.259 515.479 346.776 518.344 343.977C521.273 341.177 525.147 339.777 529.965 339.777C534.783 339.777 538.624 341.177 541.488 343.977C544.418 346.776 545.883 350.259 545.883 354.426C545.883 358.592 544.418 362.076 541.488 364.875C538.624 367.674 534.783 369.074 529.965 369.074C525.147 369.074 521.273 367.674 518.344 364.875C515.479 362.076 514.047 358.592 514.047 354.426Z"/>
</mask>
<path d="M127.719 330.793C127.719 328.254 127.328 325.975 126.547 323.957C125.831 321.874 124.464 319.986 122.445 318.293C120.427 316.535 117.595 314.81 113.949 313.117C110.303 311.424 105.583 309.667 99.7891 307.844C93.3438 305.76 87.224 303.417 81.4297 300.812C75.7005 298.208 70.6224 295.181 66.1953 291.73C61.8333 288.215 58.3828 284.146 55.8438 279.523C53.3698 274.901 52.1328 269.53 52.1328 263.41C52.1328 257.486 53.4349 252.115 56.0391 247.297C58.6432 242.414 62.2891 238.247 66.9766 234.797C71.6641 231.281 77.1979 228.579 83.5781 226.691C90.0234 224.803 97.0872 223.859 104.77 223.859C115.251 223.859 124.398 225.747 132.211 229.523C140.023 233.299 146.078 238.475 150.375 245.051C154.737 251.626 156.918 259.146 156.918 267.609H127.816C127.816 263.443 126.938 259.797 125.18 256.672C123.487 253.482 120.883 250.975 117.367 249.152C113.917 247.329 109.555 246.418 104.281 246.418C99.2031 246.418 94.9714 247.199 91.5859 248.762C88.2005 250.259 85.6615 252.31 83.9688 254.914C82.276 257.453 81.4297 260.318 81.4297 263.508C81.4297 265.917 82.0156 268.098 83.1875 270.051C84.4245 272.004 86.2474 273.827 88.6562 275.52C91.0651 277.212 94.0273 278.807 97.543 280.305C101.059 281.802 105.128 283.267 109.75 284.699C117.497 287.043 124.301 289.68 130.16 292.609C136.085 295.539 141.033 298.827 145.004 302.473C148.975 306.118 151.97 310.253 153.988 314.875C156.007 319.497 157.016 324.738 157.016 330.598C157.016 336.783 155.811 342.316 153.402 347.199C150.993 352.082 147.51 356.216 142.953 359.602C138.396 362.987 132.96 365.559 126.645 367.316C120.329 369.074 113.266 369.953 105.453 369.953C98.4219 369.953 91.4883 369.042 84.6523 367.219C77.8164 365.331 71.599 362.499 66 358.723C60.4661 354.947 56.0391 350.129 52.7188 344.27C49.3984 338.41 47.7383 331.477 47.7383 323.469H77.1328C77.1328 327.896 77.8164 331.639 79.1836 334.699C80.5508 337.759 82.4714 340.233 84.9453 342.121C87.4844 344.009 90.4792 345.376 93.9297 346.223C97.4453 347.069 101.286 347.492 105.453 347.492C110.531 347.492 114.698 346.776 117.953 345.344C121.273 343.911 123.715 341.926 125.277 339.387C126.905 336.848 127.719 333.983 127.719 330.793ZM170.688 316.242V314.191C170.688 306.444 171.794 299.315 174.008 292.805C176.221 286.229 179.444 280.533 183.676 275.715C187.908 270.897 193.116 267.154 199.301 264.484C205.486 261.75 212.582 260.383 220.59 260.383C228.598 260.383 235.727 261.75 241.977 264.484C248.227 267.154 253.467 270.897 257.699 275.715C261.996 280.533 265.251 286.229 267.465 292.805C269.678 299.315 270.785 306.444 270.785 314.191V316.242C270.785 323.924 269.678 331.053 267.465 337.629C265.251 344.139 261.996 349.836 257.699 354.719C253.467 359.536 248.259 363.28 242.074 365.949C235.889 368.618 228.793 369.953 220.785 369.953C212.777 369.953 205.648 368.618 199.398 365.949C193.214 363.28 187.973 359.536 183.676 354.719C179.444 349.836 176.221 344.139 174.008 337.629C171.794 331.053 170.688 323.924 170.688 316.242ZM198.812 314.191V316.242C198.812 320.669 199.203 324.803 199.984 328.645C200.766 332.486 202.003 335.871 203.695 338.801C205.453 341.665 207.732 343.911 210.531 345.539C213.331 347.167 216.749 347.98 220.785 347.98C224.691 347.98 228.044 347.167 230.844 345.539C233.643 343.911 235.889 341.665 237.582 338.801C239.275 335.871 240.512 332.486 241.293 328.645C242.139 324.803 242.562 320.669 242.562 316.242V314.191C242.562 309.895 242.139 305.858 241.293 302.082C240.512 298.241 239.242 294.855 237.484 291.926C235.792 288.931 233.546 286.587 230.746 284.895C227.947 283.202 224.561 282.355 220.59 282.355C216.618 282.355 213.233 283.202 210.434 284.895C207.699 286.587 205.453 288.931 203.695 291.926C202.003 294.855 200.766 298.241 199.984 302.082C199.203 305.858 198.812 309.895 198.812 314.191ZM347.348 324.348V225.812H376.547V324.348C376.547 333.853 374.464 342.023 370.297 348.859C366.13 355.63 360.434 360.839 353.207 364.484C346.046 368.13 337.973 369.953 328.988 369.953C319.678 369.953 311.443 368.391 304.281 365.266C297.12 362.141 291.488 357.355 287.387 350.91C283.285 344.4 281.234 336.164 281.234 326.203H310.629C310.629 331.411 311.345 335.546 312.777 338.605C314.275 341.665 316.391 343.846 319.125 345.148C321.859 346.451 325.147 347.102 328.988 347.102C332.699 347.102 335.922 346.223 338.656 344.465C341.391 342.707 343.507 340.135 345.004 336.75C346.566 333.365 347.348 329.23 347.348 324.348ZM395.297 316.242V314.191C395.297 306.444 396.404 299.315 398.617 292.805C400.831 286.229 404.053 280.533 408.285 275.715C412.517 270.897 417.725 267.154 423.91 264.484C430.095 261.75 437.191 260.383 445.199 260.383C453.207 260.383 460.336 261.75 466.586 264.484C472.836 267.154 478.077 270.897 482.309 275.715C486.605 280.533 489.861 286.229 492.074 292.805C494.288 299.315 495.395 306.444 495.395 314.191V316.242C495.395 323.924 494.288 331.053 492.074 337.629C489.861 344.139 486.605 349.836 482.309 354.719C478.077 359.536 472.868 363.28 466.684 365.949C460.499 368.618 453.402 369.953 445.395 369.953C437.387 369.953 430.258 368.618 424.008 365.949C417.823 363.28 412.582 359.536 408.285 354.719C404.053 349.836 400.831 344.139 398.617 337.629C396.404 331.053 395.297 323.924 395.297 316.242ZM423.422 314.191V316.242C423.422 320.669 423.812 324.803 424.594 328.645C425.375 332.486 426.612 335.871 428.305 338.801C430.062 341.665 432.341 343.911 435.141 345.539C437.94 347.167 441.358 347.98 445.395 347.98C449.301 347.98 452.654 347.167 455.453 345.539C458.253 343.911 460.499 341.665 462.191 338.801C463.884 335.871 465.121 332.486 465.902 328.645C466.749 324.803 467.172 320.669 467.172 316.242V314.191C467.172 309.895 466.749 305.858 465.902 302.082C465.121 298.241 463.852 294.855 462.094 291.926C460.401 288.931 458.155 286.587 455.355 284.895C452.556 283.202 449.171 282.355 445.199 282.355C441.228 282.355 437.842 283.202 435.043 284.895C432.309 286.587 430.062 288.931 428.305 291.926C426.612 294.855 425.375 298.241 424.594 302.082C423.812 305.858 423.422 309.895 423.422 314.191ZM514.047 354.426C514.047 350.259 515.479 346.776 518.344 343.977C521.273 341.177 525.147 339.777 529.965 339.777C534.783 339.777 538.624 341.177 541.488 343.977C544.418 346.776 545.883 350.259 545.883 354.426C545.883 358.592 544.418 362.076 541.488 364.875C538.624 367.674 534.783 369.074 529.965 369.074C525.147 369.074 521.273 367.674 518.344 364.875C515.479 362.076 514.047 358.592 514.047 354.426Z" fill="black"/>
<path d="M126.547 323.957L125.601 324.282L125.607 324.3L125.614 324.318L126.547 323.957ZM122.445 318.293L121.789 319.047L121.796 319.053L121.803 319.059L122.445 318.293ZM99.7891 307.844L99.4815 308.795L99.489 308.798L99.7891 307.844ZM81.4297 300.812L81.0159 301.723L81.0197 301.725L81.4297 300.812ZM66.1953 291.73L65.5678 292.509L65.5741 292.514L65.5806 292.519L66.1953 291.73ZM55.8438 279.523L54.962 279.995L54.9673 280.005L55.8438 279.523ZM56.0391 247.297L56.9188 247.772L56.9214 247.767L56.0391 247.297ZM66.9766 234.797L67.5694 235.602L67.5766 235.597L66.9766 234.797ZM83.5781 226.691L83.297 225.732L83.2944 225.733L83.5781 226.691ZM150.375 245.051L149.538 245.598L149.542 245.604L150.375 245.051ZM156.918 267.609V268.609H157.918V267.609H156.918ZM127.816 267.609H126.816V268.609H127.816V267.609ZM125.18 256.672L124.296 257.141L124.302 257.151L124.308 257.162L125.18 256.672ZM117.367 249.152L116.9 250.037L116.907 250.04L117.367 249.152ZM91.5859 248.762L91.9904 249.676L91.9977 249.673L92.005 249.67L91.5859 248.762ZM83.9688 254.914L84.8009 255.469L84.8072 255.459L83.9688 254.914ZM83.1875 270.051L82.33 270.565L82.3362 270.576L82.3427 270.586L83.1875 270.051ZM88.6562 275.52L89.2312 274.701L88.6562 275.52ZM109.75 284.699L109.454 285.654L109.46 285.656L109.75 284.699ZM130.16 292.609L129.713 293.504L129.717 293.506L130.16 292.609ZM145.004 302.473L144.328 303.209L145.004 302.473ZM153.988 314.875L153.072 315.275L153.988 314.875ZM142.953 359.602L142.357 358.799L142.953 359.602ZM84.6523 367.219L84.3861 368.183L84.3947 368.185L84.6523 367.219ZM66 358.723L65.4364 359.549L65.4409 359.552L66 358.723ZM47.7383 323.469V322.469H46.7383V323.469H47.7383ZM77.1328 323.469H78.1328V322.469H77.1328V323.469ZM84.9453 342.121L84.3386 342.916L84.3486 342.924L84.9453 342.121ZM93.9297 346.223L93.6915 347.194L93.6956 347.195L93.9297 346.223ZM117.953 345.344L117.557 344.426L117.55 344.428L117.953 345.344ZM125.277 339.387L124.435 338.847L124.431 338.855L124.426 338.863L125.277 339.387ZM127.719 330.793H128.719C128.719 328.151 128.312 325.747 127.479 323.596L126.547 323.957L125.614 324.318C126.344 326.203 126.719 328.356 126.719 330.793H127.719ZM126.547 323.957L127.493 323.632C126.707 321.346 125.218 319.313 123.088 317.527L122.445 318.293L121.803 319.059C123.709 320.658 124.955 322.402 125.601 324.282L126.547 323.957ZM122.445 318.293L123.102 317.539C120.987 315.697 118.063 313.925 114.37 312.21L113.949 313.117L113.528 314.024C117.127 315.695 119.867 317.374 121.789 319.047L122.445 318.293ZM113.949 313.117L114.37 312.21C110.671 310.493 105.906 308.72 100.089 306.89L99.7891 307.844L99.489 308.798C105.261 310.613 109.936 312.356 113.528 314.024L113.949 313.117ZM99.7891 307.844L100.097 306.892C93.6839 304.819 87.5984 302.489 81.8396 299.9L81.4297 300.812L81.0197 301.725C86.8495 304.345 93.0036 306.701 99.4815 308.795L99.7891 307.844ZM81.4297 300.812L81.8435 299.902C76.1774 297.327 71.1682 294.339 66.8101 290.942L66.1953 291.73L65.5806 292.519C70.0766 296.023 75.2237 299.09 81.0159 301.723L81.4297 300.812ZM66.1953 291.73L66.8228 290.952C62.556 287.513 59.1926 283.543 56.7202 279.042L55.8438 279.523L54.9673 280.005C57.573 284.749 61.1106 288.917 65.5678 292.509L66.1953 291.73ZM55.8438 279.523L56.7254 279.052C54.3412 274.597 53.1328 269.393 53.1328 263.41H52.1328H51.1328C51.1328 269.667 52.3984 275.205 54.9621 279.995L55.8438 279.523ZM52.1328 263.41H53.1328C53.1328 257.638 54.3999 252.432 56.9188 247.772L56.0391 247.297L55.1594 246.821C52.4699 251.797 51.1328 257.334 51.1328 263.41H52.1328ZM56.0391 247.297L56.9214 247.767C59.4516 243.023 62.9958 238.969 67.5694 235.602L66.9766 234.797L66.3837 233.992C61.5823 237.526 57.8348 241.805 55.1567 246.826L56.0391 247.297ZM66.9766 234.797L67.5766 235.597C72.157 232.162 77.5804 229.509 83.8619 227.65L83.5781 226.691L83.2944 225.733C76.8154 227.65 71.1712 230.401 66.3766 233.997L66.9766 234.797ZM83.5781 226.691L83.8592 227.651C90.2012 225.793 97.169 224.859 104.77 224.859V223.859V222.859C97.0055 222.859 89.8457 223.813 83.297 225.732L83.5781 226.691ZM104.77 223.859V224.859C115.131 224.859 124.124 226.726 131.776 230.424L132.211 229.523L132.646 228.623C124.673 224.769 115.371 222.859 104.77 222.859V223.859ZM132.211 229.523L131.776 230.424C139.442 234.129 145.351 239.19 149.538 245.598L150.375 245.051L151.212 244.504C146.806 237.761 140.605 232.47 132.646 228.623L132.211 229.523ZM150.375 245.051L149.542 245.604C153.787 252.003 155.918 259.328 155.918 267.609H156.918H157.918C157.918 258.964 155.687 251.249 151.208 244.498L150.375 245.051ZM156.918 267.609V266.609H127.816V267.609V268.609H156.918V267.609ZM127.816 267.609H128.816C128.816 263.299 127.906 259.479 126.051 256.182L125.18 256.672L124.308 257.162C125.969 260.115 126.816 263.586 126.816 267.609H127.816ZM125.18 256.672L126.063 256.203C124.266 252.816 121.505 250.172 117.828 248.265L117.367 249.152L116.907 250.04C120.26 251.779 122.708 254.147 124.296 257.141L125.18 256.672ZM117.367 249.152L117.834 248.268C114.198 246.347 109.663 245.418 104.281 245.418V246.418V247.418C109.447 247.418 113.635 248.312 116.9 250.037L117.367 249.152ZM104.281 246.418V245.418C99.1079 245.418 94.7222 246.213 91.1669 247.854L91.5859 248.762L92.005 249.67C95.2205 248.186 99.2984 247.418 104.281 247.418V246.418ZM91.5859 248.762L91.1814 247.847C87.6531 249.408 84.9476 251.573 83.1303 254.369L83.9688 254.914L84.8072 255.459C86.3753 253.047 88.7479 251.11 91.9904 249.676L91.5859 248.762ZM83.9688 254.914L83.1367 254.359C81.3293 257.07 80.4297 260.13 80.4297 263.508H81.4297H82.4297C82.4297 260.506 83.2227 257.836 84.8008 255.469L83.9688 254.914ZM81.4297 263.508H80.4297C80.4297 266.087 81.0594 268.448 82.33 270.565L83.1875 270.051L84.045 269.536C82.9718 267.748 82.4297 265.746 82.4297 263.508H81.4297ZM83.1875 270.051L82.3427 270.586C83.6665 272.676 85.593 274.589 88.0813 276.338L88.6562 275.52L89.2312 274.701C86.9018 273.064 85.1825 271.332 84.0323 269.516L83.1875 270.051ZM88.6562 275.52L88.0813 276.338C90.5615 278.081 93.589 279.708 97.1511 281.225L97.543 280.305L97.9348 279.385C94.4657 277.907 91.5687 276.344 89.2312 274.701L88.6562 275.52ZM97.543 280.305L97.1511 281.225C100.705 282.738 104.807 284.215 109.454 285.654L109.75 284.699L110.046 283.744C105.448 282.319 101.412 280.866 97.9348 279.385L97.543 280.305ZM109.75 284.699L109.46 285.656C117.166 287.987 123.914 290.605 129.713 293.504L130.16 292.609L130.607 291.715C124.687 288.755 117.829 286.099 110.04 283.742L109.75 284.699ZM130.16 292.609L129.717 293.506C135.575 296.403 140.44 299.64 144.328 303.209L145.004 302.473L145.68 301.736C141.625 298.014 136.594 294.676 130.603 291.713L130.16 292.609ZM145.004 302.473L144.328 303.209C148.204 306.768 151.113 310.789 153.072 315.275L153.988 314.875L154.905 314.475C152.827 309.716 149.747 305.469 145.68 301.736L145.004 302.473ZM153.988 314.875L153.072 315.275C155.027 319.753 156.016 324.854 156.016 330.598H157.016H158.016C158.016 324.623 156.986 319.242 154.905 314.475L153.988 314.875ZM157.016 330.598H156.016C156.016 336.65 154.838 342.029 152.506 346.757L153.402 347.199L154.299 347.642C156.785 342.604 158.016 336.915 158.016 330.598H157.016ZM153.402 347.199L152.506 346.757C150.17 351.491 146.792 355.504 142.357 358.799L142.953 359.602L143.549 360.404C148.228 356.928 151.817 352.673 154.299 347.642L153.402 347.199ZM142.953 359.602L142.357 358.799C137.912 362.101 132.591 364.623 126.376 366.353L126.645 367.316L126.913 368.28C133.328 366.494 138.88 363.873 143.549 360.404L142.953 359.602ZM126.645 367.316L126.376 366.353C120.163 368.082 113.192 368.953 105.453 368.953V369.953V370.953C113.339 370.953 120.495 370.066 126.913 368.28L126.645 367.316ZM105.453 369.953V368.953C98.5094 368.953 91.6624 368.053 84.91 366.253L84.6523 367.219L84.3947 368.185C91.3141 370.03 98.3343 370.953 105.453 370.953V369.953ZM84.6523 367.219L84.9186 366.255C78.1817 364.394 72.064 361.606 66.5591 357.894L66 358.723L65.4409 359.552C71.1339 363.391 77.4512 366.267 84.3861 368.183L84.6523 367.219ZM66 358.723L66.5636 357.897C61.1567 354.207 56.8342 349.504 53.5888 343.777L52.7188 344.27L51.8487 344.763C55.244 350.754 59.7756 355.686 65.4364 359.549L66 358.723ZM52.7188 344.27L53.5888 343.777C50.3685 338.094 48.7383 331.336 48.7383 323.469H47.7383H46.7383C46.7383 331.617 48.4284 338.727 51.8487 344.763L52.7188 344.27ZM47.7383 323.469V324.469H77.1328V323.469V322.469H47.7383V323.469ZM77.1328 323.469H76.1328C76.1328 327.993 76.8308 331.885 78.2706 335.107L79.1836 334.699L80.0966 334.291C78.802 331.394 78.1328 327.798 78.1328 323.469H77.1328ZM79.1836 334.699L78.2706 335.107C79.7006 338.308 81.7217 340.919 84.3386 342.916L84.9453 342.121L85.552 341.326C83.221 339.547 81.401 337.211 80.0966 334.291L79.1836 334.699ZM84.9453 342.121L84.3486 342.924C87.0071 344.9 90.1273 346.32 93.6915 347.194L93.9297 346.223L94.1679 345.251C90.831 344.433 87.9616 343.118 85.542 341.319L84.9453 342.121ZM93.9297 346.223L93.6956 347.195C97.2985 348.062 101.219 348.492 105.453 348.492V347.492V346.492C101.354 346.492 97.5921 346.076 94.1637 345.25L93.9297 346.223ZM105.453 347.492V348.492C110.615 348.492 114.932 347.766 118.356 346.259L117.953 345.344L117.55 344.428C114.464 345.786 110.447 346.492 105.453 346.492V347.492ZM117.953 345.344L118.349 346.262C121.817 344.766 124.438 342.659 126.129 339.911L125.277 339.387L124.426 338.863C122.992 341.192 120.729 343.057 117.557 344.426L117.953 345.344ZM125.277 339.387L126.119 339.926C127.856 337.217 128.719 334.163 128.719 330.793H127.719H126.719C126.719 333.803 125.954 336.479 124.435 338.847L125.277 339.387ZM174.008 292.805L174.955 293.127L174.956 293.124L174.008 292.805ZM183.676 275.715L182.924 275.055L183.676 275.715ZM199.301 264.484L199.697 265.403L199.705 265.399L199.301 264.484ZM241.977 264.484L241.576 265.401L241.584 265.404L241.977 264.484ZM257.699 275.715L256.948 276.375L256.953 276.38L257.699 275.715ZM267.465 292.805L266.517 293.124L266.518 293.127L267.465 292.805ZM267.465 337.629L268.412 337.951L268.413 337.948L267.465 337.629ZM257.699 354.719L256.949 354.058L256.948 354.059L257.699 354.719ZM199.398 365.949L199.002 366.867L199.006 366.869L199.398 365.949ZM183.676 354.719L182.92 355.374L182.925 355.379L182.929 355.384L183.676 354.719ZM174.008 337.629L173.06 337.948L173.061 337.951L174.008 337.629ZM203.695 338.801L202.829 339.301L202.836 339.313L202.843 339.324L203.695 338.801ZM230.844 345.539L231.346 346.404L230.844 345.539ZM237.582 338.801L238.443 339.31L238.448 339.301L237.582 338.801ZM241.293 328.645L240.316 328.429L240.315 328.437L240.313 328.445L241.293 328.645ZM241.293 302.082L240.313 302.281L240.315 302.291L240.317 302.301L241.293 302.082ZM237.484 291.926L236.614 292.418L236.62 292.429L236.627 292.44L237.484 291.926ZM230.746 284.895L231.264 284.039L230.746 284.895ZM210.434 284.895L209.916 284.039L209.907 284.044L210.434 284.895ZM203.695 291.926L202.833 291.42L202.829 291.426L203.695 291.926ZM199.984 302.082L200.964 302.285L200.964 302.281L199.984 302.082ZM170.688 316.242H171.688V314.191H170.688H169.688V316.242H170.688ZM170.688 314.191H171.688C171.688 306.54 172.78 299.521 174.955 293.127L174.008 292.805L173.061 292.483C170.808 299.109 169.688 306.348 169.688 314.191H170.688ZM174.008 292.805L174.956 293.124C177.13 286.663 180.29 281.085 184.427 276.375L183.676 275.715L182.924 275.055C178.598 279.98 175.312 285.795 173.06 292.486L174.008 292.805ZM183.676 275.715L184.427 276.375C188.556 271.674 193.641 268.016 199.697 265.403L199.301 264.484L198.905 263.566C192.591 266.291 187.259 270.12 182.924 275.055L183.676 275.715ZM199.301 264.484L199.705 265.399C205.741 262.73 212.696 261.383 220.59 261.383V260.383V259.383C212.468 259.383 205.23 260.77 198.896 263.57L199.301 264.484ZM220.59 260.383V261.383C228.483 261.383 235.472 262.73 241.576 265.401L241.977 264.484L242.377 263.568C235.981 260.77 228.712 259.383 220.59 259.383V260.383ZM241.977 264.484L241.584 265.404C247.705 268.018 252.821 271.676 256.948 276.375L257.699 275.715L258.451 275.055C254.114 270.118 248.748 266.289 242.369 263.565L241.977 264.484ZM257.699 275.715L256.953 276.38C261.153 281.09 264.343 286.666 266.517 293.124L267.465 292.805L268.413 292.486C266.159 285.792 262.839 279.975 258.446 275.049L257.699 275.715ZM267.465 292.805L266.518 293.127C268.692 299.521 269.785 306.54 269.785 314.191H270.785H271.785C271.785 306.348 270.665 299.109 268.412 292.483L267.465 292.805ZM270.785 314.191H269.785V316.242H270.785H271.785V314.191H270.785ZM270.785 316.242H269.785C269.785 323.828 268.693 330.848 266.517 337.31L267.465 337.629L268.413 337.948C270.664 331.259 271.785 324.021 271.785 316.242H270.785ZM267.465 337.629L266.518 337.307C264.344 343.7 261.153 349.28 256.949 354.058L257.699 354.719L258.45 355.379C262.839 350.392 266.158 344.579 268.412 337.951L267.465 337.629ZM257.699 354.719L256.948 354.059C252.819 358.76 247.734 362.417 241.678 365.031L242.074 365.949L242.47 366.867C248.784 364.142 254.116 360.313 258.451 355.379L257.699 354.719ZM242.074 365.949L241.678 365.031C235.64 367.637 228.682 368.953 220.785 368.953V369.953V370.953C228.904 370.953 236.139 369.6 242.47 366.867L242.074 365.949ZM220.785 369.953V368.953C212.889 368.953 205.897 367.637 199.791 365.03L199.398 365.949L199.006 366.869C205.4 369.6 212.666 370.953 220.785 370.953V369.953ZM199.398 365.949L199.795 365.031C193.738 362.417 188.618 358.757 184.422 354.053L183.676 354.719L182.929 355.384C187.327 360.315 192.69 364.143 199.002 366.867L199.398 365.949ZM183.676 354.719L184.431 354.064C180.29 349.285 177.129 343.703 174.955 337.307L174.008 337.629L173.061 337.951C175.313 344.576 178.598 350.387 182.92 355.374L183.676 354.719ZM174.008 337.629L174.956 337.31C172.78 330.848 171.688 323.828 171.688 316.242H170.688H169.688C169.688 324.021 170.808 331.259 173.06 337.948L174.008 337.629ZM198.812 314.191H197.812V316.242H198.812H199.812V314.191H198.812ZM198.812 316.242H197.812C197.812 320.728 198.208 324.929 199.004 328.844L199.984 328.645L200.964 328.445C200.198 324.677 199.812 320.611 199.812 316.242H198.812ZM199.984 328.645L199.004 328.844C199.804 332.774 201.075 336.264 202.829 339.301L203.695 338.801L204.561 338.301C202.93 335.478 201.727 332.197 200.964 328.445L199.984 328.645ZM203.695 338.801L202.843 339.324C204.684 342.324 207.081 344.69 210.029 346.404L210.531 345.539L211.034 344.675C208.383 343.133 206.222 341.007 204.548 338.278L203.695 338.801ZM210.531 345.539L210.029 346.404C213.014 348.139 216.615 348.98 220.785 348.98V347.98V346.98C216.882 346.98 213.647 346.194 211.034 344.675L210.531 345.539ZM220.785 347.98V348.98C224.832 348.98 228.366 348.137 231.346 346.404L230.844 345.539L230.341 344.675C227.723 346.197 224.551 346.98 220.785 346.98V347.98ZM230.844 345.539L231.346 346.404C234.298 344.688 236.666 342.317 238.443 339.31L237.582 338.801L236.721 338.292C235.113 341.014 232.989 343.135 230.341 344.675L230.844 345.539ZM237.582 338.801L238.448 339.301C240.202 336.264 241.473 332.774 242.273 328.844L241.293 328.645L240.313 328.445C239.55 332.197 238.347 335.478 236.716 338.301L237.582 338.801ZM241.293 328.645L242.27 328.86C243.133 324.94 243.562 320.733 243.562 316.242H242.562H241.562C241.562 320.606 241.145 324.667 240.316 328.429L241.293 328.645ZM242.562 316.242H243.562V314.191H242.562H241.562V316.242H242.562ZM242.562 314.191H243.562C243.562 309.829 243.133 305.719 242.269 301.863L241.293 302.082L240.317 302.301C241.146 305.998 241.562 309.96 241.562 314.191H242.562ZM241.293 302.082L242.273 301.883C241.472 297.946 240.166 294.452 238.342 291.411L237.484 291.926L236.627 292.44C238.318 295.259 239.551 298.535 240.313 302.281L241.293 302.082ZM237.484 291.926L238.355 291.434C236.582 288.297 234.218 285.825 231.264 284.039L230.746 284.895L230.229 285.75C232.873 287.349 235.001 289.565 236.614 292.418L237.484 291.926ZM230.746 284.895L231.264 284.039C228.278 282.233 224.705 281.355 220.59 281.355V282.355V283.355C224.418 283.355 227.616 284.17 230.229 285.75L230.746 284.895ZM220.59 282.355V281.355C216.475 281.355 212.902 282.233 209.916 284.039L210.434 284.895L210.951 285.75C213.564 284.17 216.762 283.355 220.59 283.355V282.355ZM210.434 284.895L209.907 284.044C207.024 285.829 204.666 288.296 202.833 291.42L203.695 291.926L204.558 292.432C206.24 289.566 208.375 287.345 210.96 285.745L210.434 284.895ZM203.695 291.926L202.829 291.426C201.075 294.462 199.804 297.952 199.004 301.883L199.984 302.082L200.964 302.281C201.727 298.53 202.93 295.249 204.561 292.426L203.695 291.926ZM199.984 302.082L199.005 301.879C198.209 305.729 197.812 309.834 197.812 314.191H198.812H199.812C199.812 309.955 200.198 305.987 200.964 302.285L199.984 302.082ZM347.348 225.812V224.812H346.348V225.812H347.348ZM376.547 225.812H377.547V224.812H376.547V225.812ZM370.297 348.859L371.149 349.383L371.151 349.38L370.297 348.859ZM353.207 364.484L352.757 363.592L352.753 363.593L353.207 364.484ZM287.387 350.91L286.541 351.443L286.543 351.447L287.387 350.91ZM281.234 326.203V325.203H280.234V326.203H281.234ZM310.629 326.203H311.629V325.203H310.629V326.203ZM312.777 338.605L311.872 339.029L311.875 339.037L311.879 339.045L312.777 338.605ZM345.004 336.75L344.096 336.331L344.093 336.338L344.089 336.345L345.004 336.75ZM347.348 324.348H348.348V225.812H347.348H346.348V324.348H347.348ZM347.348 225.812V226.812H376.547V225.812V224.812H347.348V225.812ZM376.547 225.812H375.547V324.348H376.547H377.547V225.812H376.547ZM376.547 324.348H375.547C375.547 333.704 373.498 341.687 369.443 348.339L370.297 348.859L371.151 349.38C375.43 342.36 377.547 334.002 377.547 324.348H376.547ZM370.297 348.859L369.445 348.335C365.377 354.945 359.821 360.028 352.757 363.592L353.207 364.484L353.657 365.377C361.046 361.65 366.883 356.315 371.149 349.383L370.297 348.859ZM353.207 364.484L352.753 363.593C345.748 367.159 337.834 368.953 328.988 368.953V369.953V370.953C338.112 370.953 346.343 369.101 353.661 365.376L353.207 364.484ZM328.988 369.953V368.953C319.79 368.953 311.695 367.41 304.681 364.349L304.281 365.266L303.881 366.182C311.191 369.372 319.567 370.953 328.988 370.953V369.953ZM304.281 365.266L304.681 364.349C297.698 361.302 292.223 356.647 288.23 350.373L287.387 350.91L286.543 351.447C290.754 358.064 296.542 362.98 303.881 366.182L304.281 365.266ZM287.387 350.91L288.233 350.377C284.257 344.067 282.234 336.03 282.234 326.203H281.234H280.234C280.234 336.298 282.313 344.732 286.541 351.443L287.387 350.91ZM281.234 326.203V327.203H310.629V326.203V325.203H281.234V326.203ZM310.629 326.203H309.629C309.629 331.486 310.353 335.784 311.872 339.029L312.777 338.605L313.683 338.182C312.337 335.307 311.629 331.337 311.629 326.203H310.629ZM312.777 338.605L311.879 339.045C313.463 342.281 315.731 344.64 318.695 346.051L319.125 345.148L319.555 344.246C317.05 343.053 315.087 341.05 313.676 338.166L312.777 338.605ZM319.125 345.148L318.695 346.051C321.595 347.432 325.037 348.102 328.988 348.102V347.102V346.102C325.257 346.102 322.124 345.469 319.555 344.246L319.125 345.148ZM328.988 347.102V348.102C332.863 348.102 336.279 347.182 339.197 345.306L338.656 344.465L338.115 343.624C335.564 345.264 332.535 346.102 328.988 346.102V347.102ZM338.656 344.465L339.197 345.306C342.118 343.428 344.353 340.693 345.918 337.155L345.004 336.75L344.089 336.345C342.66 339.577 340.663 341.986 338.115 343.624L338.656 344.465ZM345.004 336.75L345.912 337.169C347.551 333.618 348.348 329.332 348.348 324.348H347.348H346.348C346.348 329.129 345.582 333.111 344.096 336.331L345.004 336.75ZM398.617 292.805L399.564 293.127L399.565 293.124L398.617 292.805ZM408.285 275.715L407.534 275.055L408.285 275.715ZM423.91 264.484L424.306 265.403L424.315 265.399L423.91 264.484ZM466.586 264.484L466.185 265.401L466.193 265.404L466.586 264.484ZM482.309 275.715L481.557 276.375L481.562 276.38L482.309 275.715ZM492.074 292.805L491.126 293.124L491.127 293.127L492.074 292.805ZM492.074 337.629L493.021 337.951L493.022 337.948L492.074 337.629ZM482.309 354.719L481.558 354.058L481.557 354.059L482.309 354.719ZM424.008 365.949L423.612 366.867L423.615 366.869L424.008 365.949ZM408.285 354.719L407.529 355.374L407.534 355.379L407.539 355.384L408.285 354.719ZM398.617 337.629L397.669 337.948L397.67 337.951L398.617 337.629ZM428.305 338.801L427.439 339.301L427.445 339.313L427.452 339.324L428.305 338.801ZM455.453 345.539L455.956 346.404L455.453 345.539ZM462.191 338.801L463.052 339.31L463.057 339.301L462.191 338.801ZM465.902 328.645L464.926 328.429L464.924 328.437L464.922 328.445L465.902 328.645ZM465.902 302.082L464.922 302.281L464.924 302.291L464.927 302.301L465.902 302.082ZM462.094 291.926L461.223 292.418L461.23 292.429L461.236 292.44L462.094 291.926ZM455.355 284.895L455.873 284.039L455.355 284.895ZM435.043 284.895L434.526 284.039L434.517 284.044L435.043 284.895ZM428.305 291.926L427.442 291.42L427.439 291.426L428.305 291.926ZM424.594 302.082L425.573 302.285L425.574 302.281L424.594 302.082ZM395.297 316.242H396.297V314.191H395.297H394.297V316.242H395.297ZM395.297 314.191H396.297C396.297 306.54 397.39 299.521 399.564 293.127L398.617 292.805L397.67 292.483C395.417 299.109 394.297 306.348 394.297 314.191H395.297ZM398.617 292.805L399.565 293.124C401.74 286.663 404.899 281.085 409.036 276.375L408.285 275.715L407.534 275.055C403.208 279.98 399.922 285.795 397.669 292.486L398.617 292.805ZM408.285 275.715L409.036 276.375C413.166 271.674 418.25 268.016 424.306 265.403L423.91 264.484L423.514 263.566C417.2 266.291 411.868 270.12 407.534 275.055L408.285 275.715ZM423.91 264.484L424.315 265.399C430.351 262.73 437.305 261.383 445.199 261.383V260.383V259.383C437.077 259.383 429.839 260.77 423.506 263.57L423.91 264.484ZM445.199 260.383V261.383C453.093 261.383 460.082 262.73 466.185 265.401L466.586 264.484L466.987 263.568C460.59 260.77 453.321 259.383 445.199 259.383V260.383ZM466.586 264.484L466.193 265.404C472.314 268.018 477.43 271.676 481.557 276.375L482.309 275.715L483.06 275.055C478.724 270.118 473.358 266.289 466.979 263.565L466.586 264.484ZM482.309 275.715L481.562 276.38C485.763 281.09 488.953 286.666 491.126 293.124L492.074 292.805L493.022 292.486C490.769 285.792 487.448 279.975 483.055 275.049L482.309 275.715ZM492.074 292.805L491.127 293.127C493.302 299.521 494.395 306.54 494.395 314.191H495.395H496.395C496.395 306.348 495.274 299.109 493.021 292.483L492.074 292.805ZM495.395 314.191H494.395V316.242H495.395H496.395V314.191H495.395ZM495.395 316.242H494.395C494.395 323.828 493.302 330.848 491.126 337.31L492.074 337.629L493.022 337.948C495.274 331.259 496.395 324.021 496.395 316.242H495.395ZM492.074 337.629L491.127 337.307C488.954 343.7 485.763 349.28 481.558 354.058L482.309 354.719L483.059 355.379C487.448 350.392 490.768 344.579 493.021 337.951L492.074 337.629ZM482.309 354.719L481.557 354.059C477.428 358.76 472.343 362.417 466.287 365.031L466.684 365.949L467.08 366.867C473.394 364.142 478.725 360.313 483.06 355.379L482.309 354.719ZM466.684 365.949L466.287 365.031C460.249 367.637 453.291 368.953 445.395 368.953V369.953V370.953C453.513 370.953 460.749 369.6 467.08 366.867L466.684 365.949ZM445.395 369.953V368.953C437.498 368.953 430.506 367.637 424.401 365.03L424.008 365.949L423.615 366.869C430.009 369.6 437.275 370.953 445.395 370.953V369.953ZM424.008 365.949L424.404 365.031C418.347 362.417 413.227 358.757 409.031 354.053L408.285 354.719L407.539 355.384C411.937 360.315 417.299 364.143 423.612 366.867L424.008 365.949ZM408.285 354.719L409.041 354.064C404.899 349.285 401.739 343.703 399.564 337.307L398.617 337.629L397.67 337.951C399.923 344.576 403.208 350.387 407.529 355.374L408.285 354.719ZM398.617 337.629L399.565 337.31C397.389 330.848 396.297 323.828 396.297 316.242H395.297H394.297C394.297 324.021 395.418 331.259 397.669 337.948L398.617 337.629ZM423.422 314.191H422.422V316.242H423.422H424.422V314.191H423.422ZM423.422 316.242H422.422C422.422 320.728 422.818 324.929 423.614 328.844L424.594 328.645L425.574 328.445C424.807 324.677 424.422 320.611 424.422 316.242H423.422ZM424.594 328.645L423.614 328.844C424.413 332.774 425.684 336.264 427.439 339.301L428.305 338.801L429.171 338.301C427.54 335.478 426.337 332.197 425.574 328.445L424.594 328.645ZM428.305 338.801L427.452 339.324C429.293 342.324 431.69 344.69 434.638 346.404L435.141 345.539L435.643 344.675C432.992 343.133 430.832 341.007 429.157 338.278L428.305 338.801ZM435.141 345.539L434.638 346.404C437.623 348.139 441.225 348.98 445.395 348.98V347.98V346.98C441.492 346.98 438.257 346.194 435.643 344.675L435.141 345.539ZM445.395 347.98V348.98C449.441 348.98 452.975 348.137 455.956 346.404L455.453 345.539L454.951 344.675C452.332 346.197 449.161 346.98 445.395 346.98V347.98ZM455.453 345.539L455.956 346.404C458.907 344.688 461.275 342.317 463.052 339.31L462.191 338.801L461.33 338.292C459.722 341.014 457.598 343.135 454.951 344.675L455.453 345.539ZM462.191 338.801L463.057 339.301C464.812 336.264 466.083 332.774 466.882 328.844L465.902 328.645L464.922 328.445C464.159 332.197 462.956 335.478 461.326 338.301L462.191 338.801ZM465.902 328.645L466.879 328.86C467.743 324.94 468.172 320.733 468.172 316.242H467.172H466.172C466.172 320.606 465.755 324.667 464.926 328.429L465.902 328.645ZM467.172 316.242H468.172V314.191H467.172H466.172V316.242H467.172ZM467.172 314.191H468.172C468.172 309.829 467.742 305.719 466.878 301.863L465.902 302.082L464.927 302.301C465.755 305.998 466.172 309.96 466.172 314.191H467.172ZM465.902 302.082L466.882 301.883C466.082 297.946 464.775 294.452 462.951 291.411L462.094 291.926L461.236 292.44C462.928 295.259 464.161 298.535 464.922 302.281L465.902 302.082ZM462.094 291.926L462.964 291.434C461.192 288.297 458.827 285.825 455.873 284.039L455.355 284.895L454.838 285.75C457.483 287.349 459.61 289.565 461.223 292.418L462.094 291.926ZM455.355 284.895L455.873 284.039C452.887 282.233 449.314 281.355 445.199 281.355V282.355V283.355C449.027 283.355 452.225 284.17 454.838 285.75L455.355 284.895ZM445.199 282.355V281.355C441.085 281.355 437.511 282.233 434.526 284.039L435.043 284.895L435.56 285.75C438.173 284.17 441.371 283.355 445.199 283.355V282.355ZM435.043 284.895L434.517 284.044C431.633 285.829 429.276 288.296 427.442 291.42L428.305 291.926L429.167 292.432C430.849 289.566 432.984 287.345 435.569 285.745L435.043 284.895ZM428.305 291.926L427.439 291.426C425.684 294.462 424.413 297.952 423.614 301.883L424.594 302.082L425.574 302.281C426.337 298.53 427.54 295.249 429.171 292.426L428.305 291.926ZM424.594 302.082L423.614 301.879C422.818 305.729 422.422 309.834 422.422 314.191H423.422H424.422C424.422 309.955 424.807 305.987 425.573 302.285L424.594 302.082ZM518.344 343.977L517.653 343.254L517.645 343.261L518.344 343.977ZM541.488 343.977L540.789 344.692L540.797 344.7L541.488 343.977ZM541.488 364.875L540.797 364.152L540.789 364.16L541.488 364.875ZM518.344 364.875L517.645 365.59L517.653 365.598L518.344 364.875ZM514.047 354.426H515.047C515.047 350.516 516.379 347.295 519.043 344.692L518.344 343.977L517.645 343.261C514.579 346.257 513.047 350.002 513.047 354.426H514.047ZM518.344 343.977L519.035 344.7C521.744 342.111 525.353 340.777 529.965 340.777V339.777V338.777C524.942 338.777 520.803 340.243 517.653 343.254L518.344 343.977ZM529.965 339.777V340.777C534.578 340.777 538.148 342.111 540.789 344.692L541.488 343.977L542.187 343.261C539.099 340.243 534.987 338.777 529.965 338.777V339.777ZM541.488 343.977L540.797 344.7C543.523 347.304 544.883 350.524 544.883 354.426H545.883H546.883C546.883 349.995 545.312 346.248 542.179 343.254L541.488 343.977ZM545.883 354.426H544.883C544.883 358.328 543.523 361.547 540.797 364.152L541.488 364.875L542.179 365.598C545.312 362.604 546.883 358.857 546.883 354.426H545.883ZM541.488 364.875L540.789 364.16C538.148 366.741 534.578 368.074 529.965 368.074V369.074V370.074C534.987 370.074 539.099 368.608 542.187 365.59L541.488 364.875ZM529.965 369.074V368.074C525.353 368.074 521.744 366.741 519.035 364.152L518.344 364.875L517.653 365.598C520.803 368.608 524.942 370.074 529.965 370.074V369.074ZM518.344 364.875L519.043 364.16C516.379 361.557 515.047 358.335 515.047 354.426H514.047H513.047C513.047 358.85 514.579 362.594 517.645 365.59L518.344 364.875Z" fill="black" mask="url(#path-2-outside-1_2072_16798)"/>
</svg>
